<?xml version="1.0" encoding="UTF-8" standalone="no"?><!DOCTYPE svg PUBLIC "-//W3C//DTD SVG 1.1//EN" "http://www.w3.org/Graphics/SVG/1.1/DTD/svg11.dtd"><svg width="100%" height="100%" viewBox="0 0 57 57" version="1.1" xmlns="http://www.w3.org/2000/svg" xmlns:xlink="http://www.w3.org/1999/xlink" xml:space="preserve" style="fill-rule:evenodd;clip-rule:evenodd;stroke-linejoin:round;stroke-miterlimit:1.41421;"><g><path d="M28.2,16.7c-7,0 -12.8,5.7 -12.8,12.8c0,7.1 5.7,12.8 12.8,12.8c7.1,0 12.8,-5.8 12.8,-12.8c0,-7 -5.8,-12.8 -12.8,-12.8Zm0,21c-4.5,0 -8.2,-3.7 -8.2,-8.2c0,-4.5 3.7,-8.2 8.2,-8.2c4.5,0 8.2,3.7 8.2,8.2c0,4.5 -3.7,8.2 -8.2,8.2Z" style="fill:#e62b1e;fill-rule:nonzero;"/><circle cx="41.5" cy="16.4" r="2.9" style="fill:#e62b1e;"/><path d="M49,8.9c-2.6,-2.7 -6.3,-4.1 -10.5,-4.1l-20.6,0c-8.7,0 -14.5,5.8 -14.5,14.5l0,20.5c0,4.3 1.4,8 4.2,10.7c2.7,2.6 6.3,3.9 10.4,3.9l20.4,0c4.3,0 7.9,-1.4 10.5,-3.9c2.7,-2.6 4.1,-6.3 4.1,-10.6l0,-20.6c0,-4.2 -1.4,-7.8 -4,-10.4Zm-0.6,31c0,3.1 -0.9,5.6 -2.7,7.3c-1.8,1.7 -4.3,2.6 -7.3,2.6l-20.4,0c-3,0 -5.5,-0.9 -7.3,-2.6c-1.8,-1.8 -2.7,-4.3 -2.7,-7.4l0,-20.5c0,-3 0.9,-5.5 2.7,-7.3c1.7,-1.7 4.3,-2.6 7.3,-2.6l20.6,0c3,0 5.5,0.9 7.3,2.7c1.7,1.8 2.7,4.3 2.7,7.2l0,20.6l-0.2,0Z" style="fill:#e62b1e;fill-rule:nonzero;"/></g></svg>