<svg xmlns="http://www.w3.org/2000/svg" width="549.876" height="549.085" viewBox="0 0 549.876 549.085">
  <g id="Group_1227" data-name="Group 1227" transform="translate(-373.164 -125.455)">
    <path id="Path_23" data-name="Path 23" d="M869.462,358.556c24.988-40.789,136.768-218.872,156.744-254.669,1.8-3.257,3.7-4.588,7.515-4.588q91.933.214,183.841.119c1.5,0,3,.214,5.1.38-1.591,2.448-2.738,4.279-3.958,6.085q-84.94,127.644-169.974,255.215c-2.717,4.088-3.02,6.727-.164,11.029q66.849,100.546,133.322,201.33,24.171,36.51,48.526,72.925H1042.481a13.124,13.124,0,0,1-11.194-6.442C1008.549,602.529,892.741,413.56,869.93,376.051,866.441,370.3,866.279,363.738,869.462,358.556Z" transform="translate(-309.246 27.156)" fill="none" stroke="#ff6549" stroke-width="2"/>
    <g id="Layer_12" transform="translate(479.327 126.455)">
      <path id="Path_24" data-name="Path 24" d="M603.98,640.963c21.851-35.893,141.311-230.187,163.771-267.839,2.341-3.946,2.013-8.937-.915-13.62C742.364,320.45,627.236,137.019,609.7,104.6c-1.686-3.09-3.444-4.516-6.416-4.9-45.434.024-85.294,0-86.817,0,1.546,2.5,117.658,177.109,174.707,262.585,2.225,3.328,2.5,5.658.163,9.175C631.427,461.809,509.882,645.312,508.9,646.643h84.426C595.714,646.668,601.8,644.528,603.98,640.963Z" transform="translate(-508.9 -99.7)" fill="none" stroke="#ff6549" stroke-miterlimit="10" stroke-width="2"/>
    </g>
    <g id="Layer_10" transform="translate(375.027 126.455)">
      <g id="Group_985" data-name="Group 985" transform="translate(0 0)">
        <path id="Path_25" data-name="Path 25" d="M315.748,362.285c-57-85.4-173-259.875-174.705-262.585H74.064c1.546,2.5,117.657,177.109,174.705,262.585,2.225,3.328,2.506,5.657.164,9.175C189.028,461.809,67.483,645.313,66.5,646.643h66.978c.96-1.307,122.5-184.834,182.434-275.183C318.23,367.966,317.973,365.636,315.748,362.285Z" transform="translate(-66.5 -99.7)" fill="none" stroke="#ff6549" stroke-miterlimit="10" stroke-width="2"/>
      </g>
    </g>
  </g>
</svg>
