<svg width="4801" height="4184" viewBox="0 0 4801 4184" fill="none" xmlns="http://www.w3.org/2000/svg">
<rect x="10.7969" y="10" width="4780.2" height="4163.03" rx="190" fill="#F5C26A" stroke="black" stroke-width="20"/>
<path d="M614.22 2886.05V2828H878.37V2886.05H778.47V3143H713.67V2886.05H614.22ZM1162.98 3143H926.727V2828H1158.03V2886.05H991.527V2946.8H1125.63V3003.95H991.527V3084.95H1162.98V3143ZM1332.47 3143H1214.57V2828H1332.47C1383.47 2828 1425.02 2842.7 1457.12 2872.1C1489.22 2901.5 1505.27 2939.3 1505.27 2985.5C1505.27 3032 1489.22 3069.95 1457.12 3099.35C1425.32 3128.45 1383.77 3143 1332.47 3143ZM1279.37 2886.05V3084.95H1327.07C1362.17 3084.95 1389.47 3076.25 1408.97 3058.85C1428.77 3041.15 1438.67 3016.7 1438.67 2985.5C1438.67 2954.3 1428.77 2930 1408.97 2912.6C1389.47 2894.9 1362.17 2886.05 1327.07 2886.05H1279.37ZM1538.87 2918.45H1609.97L1654.97 2981.45L1700.42 2918.45H1770.62L1691.87 3025.55L1777.37 3143H1706.27L1654.07 3071L1601.42 3143H1531.22L1617.17 3026L1538.87 2918.45ZM1950.2 3149.3C1910.9 3149.3 1878.65 3137.15 1853.45 3112.85C1828.25 3088.55 1815.65 3054.5 1815.65 3010.7V2828H1880V3012.95C1880 3037.25 1886.3 3056 1898.9 3069.2C1911.8 3082.1 1928.9 3088.55 1950.2 3088.55C1971.8 3088.55 1988.9 3082.1 2001.5 3069.2C2014.4 3056 2020.85 3037.25 2020.85 3012.95V2828H2085.65V3010.7C2085.65 3054.5 2072.9 3088.55 2047.4 3112.85C2022.2 3137.15 1989.8 3149.3 1950.2 3149.3ZM2194.7 3030.5C2194.7 3048.5 2200.55 3063.5 2212.25 3075.5C2223.95 3087.5 2238.8 3093.5 2256.8 3093.5C2274.8 3093.5 2289.65 3087.5 2301.35 3075.5C2313.05 3063.2 2318.9 3048.2 2318.9 3030.5C2318.9 3012.5 2313.05 2997.65 2301.35 2985.95C2289.65 2973.95 2274.8 2967.95 2256.8 2967.95C2238.8 2967.95 2223.95 2973.95 2212.25 2985.95C2200.55 2997.65 2194.7 3012.5 2194.7 3030.5ZM2132.15 3030.5C2132.15 2997.2 2143.85 2969.3 2167.25 2946.8C2190.35 2924 2220.2 2912.6 2256.8 2912.6C2293.4 2912.6 2323.25 2924 2346.35 2946.8C2369.75 2969.6 2381.45 2997.5 2381.45 3030.5C2381.45 3064.1 2369.75 3092.3 2346.35 3115.1C2322.95 3137.6 2293.1 3148.85 2256.8 3148.85C2220.5 3148.85 2190.65 3137.6 2167.25 3115.1C2143.85 3092.3 2132.15 3064.1 2132.15 3030.5ZM2508.8 2971.55V3143H2445.35V2971.55H2405.3V2918.45H2445.35V2897.3C2445.35 2874.5 2451.95 2856.35 2465.15 2842.85C2478.35 2829.35 2497.1 2822.6 2521.4 2822.6C2543.3 2822.6 2562.35 2825.75 2578.55 2832.05V2883.35C2565.05 2878.25 2552.15 2875.7 2539.85 2875.7C2519.15 2875.7 2508.8 2885.75 2508.8 2905.85V2918.45H2578.55V2971.55H2508.8ZM2760.72 3144.8H2703.57L2597.82 2828H2669.82L2734.62 3040.4L2805.72 2827.1H2856.12L2927.67 3040.4L2992.47 2828H3063.12L2956.92 3144.8H2899.77L2830.92 2934.65L2760.72 3144.8ZM3427.19 3143H3203.09V3095.75L3295.79 3011.6C3317.09 2992.1 3331.64 2976.5 3339.44 2964.8C3347.84 2952.8 3352.04 2940.05 3352.04 2926.55C3352.04 2913.05 3347.09 2902.4 3337.19 2894.6C3327.29 2886.5 3314.24 2882.45 3298.04 2882.45C3268.64 2882.45 3240.29 2894.45 3212.99 2918.45V2851.85C3238.49 2831.75 3269.09 2821.7 3304.79 2821.7C3334.79 2821.7 3360.89 2830.55 3383.09 2848.25C3405.29 2865.95 3416.39 2889.2 3416.39 2918C3416.39 2940.2 3411.44 2959.85 3401.54 2976.95C3392.54 2993.15 3375.29 3013.1 3349.79 3036.8L3295.79 3086.3H3427.19V3143ZM3606.35 3149.3C3578.45 3149.3 3554 3141.5 3533 3125.9C3512.6 3110.6 3497 3090.8 3486.2 3066.5C3475.7 3042.2 3470.45 3015.2 3470.45 2985.5C3470.45 2956.1 3475.55 2929.4 3485.75 2905.4C3496.55 2880.2 3512.45 2859.95 3533.45 2844.65C3554.75 2829.35 3579.05 2821.7 3606.35 2821.7C3647.75 2821.7 3680.6 2837.75 3704.9 2869.85C3729.5 2901.65 3741.8 2940.2 3741.8 2985.5C3741.8 3030.8 3729.5 3069.35 3704.9 3101.15C3680.6 3133.25 3647.75 3149.3 3606.35 3149.3ZM3554.6 3058.85C3567.8 3078.65 3585.05 3088.55 3606.35 3088.55C3627.95 3088.55 3645.05 3078.65 3657.65 3058.85C3670.55 3038.75 3677 3014.3 3677 2985.5C3677 2956.4 3670.55 2932.1 3657.65 2912.6C3645.05 2892.5 3627.95 2882.45 3606.35 2882.45C3584.75 2882.45 3567.5 2892.5 3554.6 2912.6C3541.7 2932.1 3535.25 2956.4 3535.25 2985.5C3535.25 3014.3 3541.7 3038.75 3554.6 3058.85ZM4004.63 3143H3780.53V3095.75L3873.23 3011.6C3894.53 2992.1 3909.08 2976.5 3916.88 2964.8C3925.28 2952.8 3929.48 2940.05 3929.48 2926.55C3929.48 2913.05 3924.53 2902.4 3914.63 2894.6C3904.73 2886.5 3891.68 2882.45 3875.48 2882.45C3846.08 2882.45 3817.73 2894.45 3790.43 2918.45V2851.85C3815.93 2831.75 3846.53 2821.7 3882.23 2821.7C3912.23 2821.7 3938.33 2830.55 3960.53 2848.25C3982.73 2865.95 3993.83 2889.2 3993.83 2918C3993.83 2940.2 3988.88 2959.85 3978.98 2976.95C3969.98 2993.15 3952.73 3013.1 3927.23 3036.8L3873.23 3086.3H4004.63V3143ZM4163.99 3143H4100.54V2897.3L4033.94 2931.05V2867.6L4107.74 2828H4163.99V3143Z" fill="#E62B1E"/>
<path d="M1353.41 3732H1300.56L1405.56 3485.6H1453.86L1558.86 3732H1505.31L1481.16 3675.3H1377.56L1353.41 3732ZM1429.36 3548.6L1393.31 3633.65H1465.06L1429.36 3548.6ZM1695.19 3552.8C1718.99 3552.8 1738.59 3561.67 1753.99 3579.4C1769.63 3596.67 1777.44 3618.48 1777.44 3644.85C1777.44 3670.75 1769.63 3692.57 1753.99 3710.3C1738.59 3727.8 1718.99 3736.55 1695.19 3736.55C1670.69 3736.55 1651.56 3727.92 1637.79 3710.65V3802H1588.44V3557.35H1637.79V3578.7C1650.86 3561.43 1669.99 3552.8 1695.19 3552.8ZM1681.19 3595.85C1671.86 3595.85 1663.34 3598.3 1655.64 3603.2C1647.94 3608.1 1641.99 3614.4 1637.79 3622.1V3667.6C1641.99 3675.3 1647.94 3681.6 1655.64 3686.5C1663.34 3691.17 1671.86 3693.5 1681.19 3693.5C1695.19 3693.5 1706.51 3688.83 1715.14 3679.5C1724.01 3669.93 1728.44 3658.38 1728.44 3644.85C1728.44 3631.08 1724.01 3619.42 1715.14 3609.85C1706.51 3600.52 1695.19 3595.85 1681.19 3595.85ZM1863.04 3732H1813.69V3557.35H1863.04V3586.75C1868.4 3577.42 1876.57 3569.48 1887.54 3562.95C1898.97 3556.18 1911.1 3552.8 1923.94 3552.8C1926.74 3552.8 1928.6 3552.92 1929.54 3553.15V3601.45C1924.87 3600.28 1919.74 3599.7 1914.14 3599.7C1902.7 3599.7 1892.2 3602.73 1882.64 3608.8C1873.3 3614.63 1866.77 3621.75 1863.04 3630.15V3732ZM2013.49 3732H1964.14V3557.35H2013.49V3732ZM1959.24 3511.15C1959.24 3502.75 1962.04 3495.75 1967.64 3490.15C1973.47 3484.32 1980.47 3481.4 1988.64 3481.4C1996.8 3481.4 2003.69 3484.32 2009.29 3490.15C2015.12 3495.75 2018.04 3502.75 2018.04 3511.15C2018.04 3519.32 2015.12 3526.32 2009.29 3532.15C2003.69 3537.75 1996.8 3540.55 1988.64 3540.55C1980.47 3540.55 1973.47 3537.75 1967.64 3532.15C1962.04 3526.32 1959.24 3519.32 1959.24 3511.15ZM2110.78 3736.55C2096.31 3736.55 2084.88 3732.7 2076.48 3725C2068.31 3717.07 2064.23 3704.82 2064.23 3688.25V3487H2113.58V3675.3C2113.58 3686.97 2118.83 3692.8 2129.33 3692.8C2134.23 3692.8 2138.43 3691.75 2141.93 3689.65V3730.25C2133.53 3734.45 2123.14 3736.55 2110.78 3736.55ZM2349.2 3732H2299.85V3540.9L2248.05 3567.15V3517.8L2305.45 3487H2349.2V3732ZM2458.98 3732H2405.43L2505.53 3532.15H2389.68V3487H2562.58V3525.85L2458.98 3732ZM2573.25 3785.2H2532.65L2562.75 3679.15H2615.6L2573.25 3785.2ZM2904.75 3732H2730.45V3695.25L2802.55 3629.8C2819.12 3614.63 2830.43 3602.5 2836.5 3593.4C2843.03 3584.07 2846.3 3574.15 2846.3 3563.65C2846.3 3553.15 2842.45 3544.87 2834.75 3538.8C2827.05 3532.5 2816.9 3529.35 2804.3 3529.35C2781.43 3529.35 2759.38 3538.68 2738.15 3557.35V3505.55C2757.98 3489.92 2781.78 3482.1 2809.55 3482.1C2832.88 3482.1 2853.18 3488.98 2870.45 3502.75C2887.72 3516.52 2896.35 3534.6 2896.35 3557C2896.35 3574.27 2892.5 3589.55 2884.8 3602.85C2877.8 3615.45 2864.38 3630.97 2844.55 3649.4L2802.55 3687.9H2904.75V3732ZM3044.09 3736.9C3022.39 3736.9 3003.38 3730.83 2987.04 3718.7C2971.18 3706.8 2959.04 3691.4 2950.64 3672.5C2942.48 3653.6 2938.39 3632.6 2938.39 3609.5C2938.39 3586.63 2942.36 3565.87 2950.29 3547.2C2958.69 3527.6 2971.06 3511.85 2987.39 3499.95C3003.96 3488.05 3022.86 3482.1 3044.09 3482.1C3076.29 3482.1 3101.84 3494.58 3120.74 3519.55C3139.88 3544.28 3149.44 3574.27 3149.44 3609.5C3149.44 3644.73 3139.88 3674.72 3120.74 3699.45C3101.84 3724.42 3076.29 3736.9 3044.09 3736.9ZM3003.84 3666.55C3014.11 3681.95 3027.53 3689.65 3044.09 3689.65C3060.89 3689.65 3074.19 3681.95 3083.99 3666.55C3094.03 3650.92 3099.04 3631.9 3099.04 3609.5C3099.04 3586.87 3094.03 3567.97 3083.99 3552.8C3074.19 3537.17 3060.89 3529.35 3044.09 3529.35C3027.29 3529.35 3013.88 3537.17 3003.84 3552.8C2993.81 3567.97 2988.79 3586.87 2988.79 3609.5C2988.79 3631.9 2993.81 3650.92 3003.84 3666.55ZM3353.87 3732H3179.57V3695.25L3251.67 3629.8C3268.24 3614.63 3279.55 3602.5 3285.62 3593.4C3292.15 3584.07 3295.42 3574.15 3295.42 3563.65C3295.42 3553.15 3291.57 3544.87 3283.87 3538.8C3276.17 3532.5 3266.02 3529.35 3253.42 3529.35C3230.55 3529.35 3208.5 3538.68 3187.27 3557.35V3505.55C3207.1 3489.92 3230.9 3482.1 3258.67 3482.1C3282 3482.1 3302.3 3488.98 3319.57 3502.75C3336.84 3516.52 3345.47 3534.6 3345.47 3557C3345.47 3574.27 3341.62 3589.55 3333.92 3602.85C3326.92 3615.45 3313.5 3630.97 3293.67 3649.4L3251.67 3687.9H3353.87V3732ZM3477.82 3732H3428.47V3540.9L3376.67 3567.15V3517.8L3434.07 3487H3477.82V3732Z" fill="black"/>
<path d="M2015.77 431H1324L1958.38 1352.29L2592.77 1278.97L3220.78 431H2529.01L2267.61 880.488L2015.77 431Z" fill="#E62B1E" stroke="black" stroke-width="12.7514"/>
<path d="M3479 2391.54L2822.3 1425.62L2187.91 1527.63L1528.03 2391.54H2222.98L2497.14 1913.36L2787.23 2391.54H3479Z" fill="#E62B1E" stroke="black" stroke-width="12.7514"/>
<path d="M1685.37 817.532L1627.43 815.181L1635.34 620.201L1694.67 622.608L1734.47 693.695L1780.18 626.078L1839.23 628.473L1831.32 823.453L1773.94 821.125L1778.37 711.937L1748.91 757.335L1716.6 756.024L1689.8 708.343L1685.37 817.532Z" fill="white"/>
<path d="M1973.64 910.659L1841.78 829.732L1943.85 663.415L2074.29 743.467L2047.31 787.423L1967.96 738.72L1958.92 753.451L2021.17 791.655L1996.38 832.046L1934.13 793.843L1919.84 817.127L2000.62 866.704L1973.64 910.659Z" fill="white"/>
<path d="M2029.07 966.432L1988.8 919.441L2190.06 852.688L2227.25 896.08L2130.66 1084.97L2088.76 1036.07L2107.42 1001.72L2066.05 953.462L2029.07 966.432ZM2155.95 918.27L2111.38 937.378L2130.07 959.18L2155.95 918.27Z" fill="white"/>
<path d="M2163.89 1160.91L2144.72 1106.78L2328.67 1041.64L2345.7 1089.73L2281.81 1191.61L2370.64 1160.16L2389.62 1213.77L2205.67 1278.9L2189.2 1232.39L2253.24 1129.27L2163.89 1160.91Z" fill="white"/>
<path d="M2371.84 1664.64L2345.26 1619.7L2482.06 1464.82L2515.32 1521.06L2439.46 1597.4L2548.35 1575.82L2571.38 1614.76L2500.01 1699.79L2603.17 1669.6L2635.72 1724.64L2433.82 1769.44L2407.8 1725.45L2478.49 1643.1L2371.84 1664.64Z" fill="white"/>
<path d="M2551.91 1917.8L2508.92 1875.47L2646.75 1735.52L2689.73 1777.85L2643.07 1825.23L2685.85 1867.37L2732.52 1819.98L2775.5 1862.31L2637.68 2002.27L2594.69 1959.93L2649.03 1904.75L2606.25 1862.62L2551.91 1917.8Z" fill="white"/>
<path d="M2765.52 2074.77L2709.96 2052.51L2782.44 1871.61L2838 1893.87L2765.52 2074.77Z" fill="white"/>
<path d="M2970.48 2113.26L2823.61 2090.74L2853.18 1897.86L2912.43 1906.94L2890.67 2048.85L2978.3 2062.28L2970.48 2113.26Z" fill="white"/>
<path d="M3155.57 2087.63L3003.25 2108.86L2976.47 1916.74L3127.15 1895.74L3134.23 1946.52L3042.56 1959.29L3044.93 1976.31L3116.84 1966.29L3123.34 2012.94L3051.43 2022.97L3055.18 2049.86L3148.49 2036.86L3155.57 2087.63Z" fill="white"/>
<g filter="url(#filter0_d)">
<path d="M2194.14 1525.63L2825.52 1425.61C2645.58 1478.54 2204.29 1670.3 2219.19 1633.53C2258.75 1535.92 2262.43 1531.26 2194.33 1528.17C2192.79 1528.1 2192.62 1525.87 2194.14 1525.63Z" fill="#E62B1E"/>
<path d="M2194.14 1525.63L2825.52 1425.61C2645.58 1478.54 2204.29 1670.3 2219.19 1633.53C2258.75 1535.92 2262.43 1531.26 2194.33 1528.17C2192.79 1528.1 2192.62 1525.87 2194.14 1525.63Z" stroke="black" stroke-width="12.7514"/>
</g>
<g filter="url(#filter1_d)">
<path d="M2583.87 1280.36L1955.18 1352.3C2137.67 1309 2587.77 1137.76 2570.94 1173.69C2526.14 1269.31 2516.06 1271.33 2583.79 1277.83C2585.31 1277.97 2585.39 1280.19 2583.87 1280.36Z" fill="#E62B1E"/>
<path d="M2583.87 1280.36L1955.18 1352.3C2137.67 1309 2587.77 1137.76 2570.94 1173.69C2526.14 1269.31 2516.06 1271.33 2583.79 1277.83C2585.31 1277.97 2585.39 1280.19 2583.87 1280.36Z" stroke="black" stroke-width="12.7514"/>
</g>
<defs>
<filter id="filter0_d" x="2082.4" y="1341.64" width="866.168" height="435.078" filterUnits="userSpaceOnUse" color-interpolation-filters="sRGB">
<feFlood flood-opacity="0" result="BackgroundImageFix"/>
<feColorMatrix in="SourceAlpha" type="matrix" values="0 0 0 0 0 0 0 0 0 0 0 0 0 0 0 0 0 0 127 0"/>
<feOffset dy="25.5029"/>
<feGaussianBlur stdDeviation="51.5252"/>
<feColorMatrix type="matrix" values="0 0 0 0 0.54902 0 0 0 0 0.0588235 0 0 0 0 0.0235294 0 0 0 0.52 0"/>
<feBlend mode="normal" in2="BackgroundImageFix" result="effect1_dropShadow"/>
<feBlend mode="normal" in="SourceGraphic" in2="effect1_dropShadow" result="shape"/>
</filter>
<filter id="filter1_d" x="1838.34" y="1032" width="857.552" height="404.278" filterUnits="userSpaceOnUse" color-interpolation-filters="sRGB">
<feFlood flood-opacity="0" result="BackgroundImageFix"/>
<feColorMatrix in="SourceAlpha" type="matrix" values="0 0 0 0 0 0 0 0 0 0 0 0 0 0 0 0 0 0 127 0"/>
<feOffset dy="-25.5029"/>
<feGaussianBlur stdDeviation="51.5252"/>
<feColorMatrix type="matrix" values="0 0 0 0 0.55 0 0 0 0 0.0571771 0 0 0 0 0.0229167 0 0 0 0.52 0"/>
<feBlend mode="normal" in2="BackgroundImageFix" result="effect1_dropShadow"/>
<feBlend mode="normal" in="SourceGraphic" in2="effect1_dropShadow" result="shape"/>
</filter>
</defs>
</svg>
