<svg width="424" height="384" viewBox="0 0 424 384" fill="none" xmlns="http://www.w3.org/2000/svg">
<path d="M137.258 2H3L126.121 180.804L249.242 166.574L371.126 2H236.868L186.135 89.2366L137.258 2Z" fill="#E62B1E" stroke="black" stroke-width="2.4748"/>
<path d="M421.241 382.5L293.789 195.034L170.667 214.833L42.5967 382.5H177.473L230.681 289.695L286.983 382.5H421.241Z" fill="#E62B1E" stroke="black" stroke-width="2.4748"/>
<path d="M73.1218 77.3323L61.8774 76.8761L63.4126 39.0344L74.9273 39.5016L82.6523 53.2979L91.5236 40.1749L102.984 40.6398L101.449 78.4815L90.3127 78.0297L91.1725 56.8384L85.4543 65.6492L79.1834 65.3948L73.9815 56.1409L73.1218 77.3323Z" fill="white"/>
<path d="M128.916 95.357L103.324 79.6506L123.133 47.3718L148.449 62.9084L143.214 71.4392L127.812 61.9871L126.058 64.8461L138.139 72.2606L133.328 80.0998L121.247 72.6852L118.473 77.2042L134.151 86.8262L128.916 95.357Z" fill="white"/>
<path d="M139.602 106.118L131.786 96.9984L170.847 84.0429L178.065 92.4645L159.319 129.123L151.186 119.634L154.807 112.968L146.78 103.601L139.602 106.118ZM164.227 96.7712L155.576 100.48L159.203 104.711L164.227 96.7712Z" fill="white"/>
<path d="M165.707 143.765L161.987 133.259L197.687 120.618L200.992 129.951L188.594 149.723L205.832 143.619L209.516 154.024L173.815 166.665L170.619 157.637L183.047 137.625L165.707 143.765Z" fill="white"/>
<path d="M206.093 241.589L200.934 232.866L227.484 202.807L233.94 213.723L219.216 228.539L240.351 224.35L244.82 231.907L230.969 248.411L250.989 242.552L257.307 253.234L218.122 261.928L213.073 253.391L226.791 237.407L206.093 241.589Z" fill="white"/>
<path d="M241.364 290.509L233.021 282.294L259.77 255.132L268.113 263.348L259.057 272.544L267.36 280.721L276.417 271.525L284.759 279.741L258.01 306.903L249.668 298.687L260.215 287.977L251.911 279.8L241.364 290.509Z" fill="white"/>
<path d="M282.653 321.319L271.869 316.998L285.936 281.89L296.719 286.21L282.653 321.319Z" fill="white"/>
<path d="M322.499 328.807L293.994 324.437L299.733 287.002L311.231 288.765L307.009 316.307L324.015 318.914L322.499 328.807Z" fill="white"/>
<path d="M358.543 324.026L328.98 328.146L323.784 290.859L353.027 286.784L354.401 296.638L336.61 299.117L337.07 302.42L351.026 300.475L352.288 309.53L338.332 311.475L339.059 316.695L357.17 314.171L358.543 324.026Z" fill="white"/>
<g filter="url(#filter0_d)">
<path d="M171.877 214.445L294.414 195.034C259.493 205.306 173.847 242.523 176.739 235.387C184.417 216.442 185.13 215.539 171.913 214.939C171.615 214.925 171.582 214.492 171.877 214.445Z" fill="#E62B1E"/>
<path d="M171.877 214.445L294.414 195.034C259.493 205.306 173.847 242.523 176.739 235.387C184.417 216.442 185.13 215.539 171.913 214.939C171.615 214.925 171.582 214.492 171.877 214.445Z" stroke="black" stroke-width="2.4748"/>
</g>
<g filter="url(#filter1_d)">
<path d="M247.517 166.842L125.502 180.804C160.92 172.4 248.275 139.167 245.008 146.139C236.313 164.698 234.357 165.09 247.502 166.35C247.798 166.379 247.812 166.809 247.517 166.842Z" fill="#E62B1E"/>
<path d="M247.517 166.842L125.502 180.804C160.92 172.4 248.275 139.167 245.008 146.139C236.313 164.698 234.357 165.09 247.502 166.35C247.798 166.379 247.812 166.809 247.517 166.842Z" stroke="black" stroke-width="2.4748"/>
</g>
<defs>
<filter id="filter0_d" x="150.435" y="178.762" width="164.329" height="83.714" filterUnits="userSpaceOnUse" color-interpolation-filters="sRGB">
<feFlood flood-opacity="0" result="BackgroundImageFix"/>
<feColorMatrix in="SourceAlpha" type="matrix" values="0 0 0 0 0 0 0 0 0 0 0 0 0 0 0 0 0 0 127 0"/>
<feOffset dy="4.94959"/>
<feGaussianBlur stdDeviation="10"/>
<feColorMatrix type="matrix" values="0 0 0 0 0.54902 0 0 0 0 0.0588235 0 0 0 0 0.0235294 0 0 0 0.52 0"/>
<feBlend mode="normal" in2="BackgroundImageFix" result="effect1_dropShadow"/>
<feBlend mode="normal" in="SourceGraphic" in2="effect1_dropShadow" result="shape"/>
</filter>
<filter id="filter1_d" x="105.216" y="118.998" width="163.752" height="78.0859" filterUnits="userSpaceOnUse" color-interpolation-filters="sRGB">
<feFlood flood-opacity="0" result="BackgroundImageFix"/>
<feColorMatrix in="SourceAlpha" type="matrix" values="0 0 0 0 0 0 0 0 0 0 0 0 0 0 0 0 0 0 127 0"/>
<feOffset dy="-4.94959"/>
<feGaussianBlur stdDeviation="10"/>
<feColorMatrix type="matrix" values="0 0 0 0 0.55 0 0 0 0 0.0571771 0 0 0 0 0.0229167 0 0 0 0.52 0"/>
<feBlend mode="normal" in2="BackgroundImageFix" result="effect1_dropShadow"/>
<feBlend mode="normal" in="SourceGraphic" in2="effect1_dropShadow" result="shape"/>
</filter>
</defs>
</svg>
