<svg xmlns="http://www.w3.org/2000/svg" width="82.86" height="82.908" viewBox="0 0 82.86 82.908">
  <g id="Group_1186" data-name="Group 1186" transform="translate(0.932 0.486)">
    <g id="Layer_4" transform="translate(27.533 0)">
      <path id="Path_23" data-name="Path 23" d="M867.529,138.125c3.742-6.108,20.482-32.777,23.473-38.138a1.118,1.118,0,0,1,1.126-.687q13.768.032,27.531.018c.224,0,.448.032.764.057-.238.367-.41.641-.592.911q-12.72,19.115-25.455,38.22a1.245,1.245,0,0,0-.025,1.652q10.011,15.057,19.966,30.15,3.619,5.468,7.267,10.921H893.44a1.965,1.965,0,0,1-1.676-.965c-3.405-5.6-20.748-33.9-24.164-39.519A2.482,2.482,0,0,1,867.529,138.125Z" transform="translate(-867.188 -99.3)" fill="#2b2b2b"/>
    </g>
    <g id="Layer_12" transform="translate(15.32 0.014)">
      <path id="Path_24" data-name="Path 24" d="M523.139,180.757c3.272-5.375,21.162-34.472,24.526-40.11a1.927,1.927,0,0,0-.137-2.04c-3.665-5.849-20.906-33.319-23.533-38.174a1.187,1.187,0,0,0-.961-.733c-6.8,0-12.773,0-13,0,.232.374,17.62,26.523,26.164,39.324a1.048,1.048,0,0,1,.024,1.374c-8.971,13.53-27.173,41.011-27.321,41.21h12.643A2.3,2.3,0,0,0,523.139,180.757Z" transform="translate(-508.9 -99.7)" fill="#e62b1e" stroke="#e62b1e" stroke-miterlimit="10" stroke-width="1"/>
    </g>
    <g id="Layer_10" transform="translate(0 0.014)">
      <g id="Group_985" data-name="Group 985" transform="translate(0 0)">
        <path id="Path_25" data-name="Path 25" d="M103.826,139.024C95.29,126.234,77.919,100.106,77.663,99.7H67.633c.231.374,17.62,26.523,26.163,39.324a1.048,1.048,0,0,1,.025,1.374c-8.971,13.53-27.173,41.011-27.321,41.21H76.53c.144-.2,18.346-27.68,27.321-41.21A1.053,1.053,0,0,0,103.826,139.024Z" transform="translate(-66.5 -99.7)" fill="#e62b1e" stroke="#e62b1e" stroke-miterlimit="10" stroke-width="1"/>
      </g>
    </g>
  </g>
</svg>
