<svg width="3546" height="651" viewBox="0 0 3546 651" fill="none" xmlns="http://www.w3.org/2000/svg">
<rect x="4" y="4" width="3538" height="643" fill="#AF7301" stroke="black" stroke-width="8"/>
<line y1="88" x2="3546" y2="88" stroke="black" stroke-width="8"/>
<path d="M0 563H3546" stroke="black" stroke-width="8"/>
<path d="M0 609H3546" stroke="black" stroke-width="8"/>
<path d="M0 44H3546" stroke="black" stroke-width="8"/>
<line x1="120.326" y1="651" x2="120.326" y2="-1.29384e-07" stroke="black" stroke-width="8"/>
<line x1="58.1641" y1="651" x2="58.1641" y2="-1.29384e-07" stroke="black" stroke-width="8"/>
<line x1="3479.84" y1="651" x2="3479.84" y2="-1.29384e-07" stroke="black" stroke-width="8"/>
<line x1="3416.32" y1="651" x2="3416.32" y2="-1.29384e-07" stroke="black" stroke-width="8"/>
<path d="M835.754 352.688L863.645 422.297L891.535 352.688H906.125V438H894.875V404.777L895.93 368.918L867.922 438H859.309L831.36 369.094L832.473 404.777V438H821.223V352.688H835.754ZM950.598 439.172C942.004 439.172 935.012 436.359 929.621 430.734C924.231 425.07 921.535 417.512 921.535 408.059V406.066C921.535 399.777 922.727 394.172 925.11 389.25C927.531 384.289 930.891 380.422 935.188 377.648C939.524 374.836 944.211 373.43 949.25 373.43C957.492 373.43 963.899 376.145 968.469 381.574C973.039 387.004 975.324 394.777 975.324 404.895V409.406H932.375C932.531 415.656 934.348 420.715 937.824 424.582C941.34 428.41 945.793 430.324 951.184 430.324C955.012 430.324 958.254 429.543 960.91 427.98C963.567 426.418 965.891 424.348 967.883 421.77L974.504 426.926C969.192 435.09 961.223 439.172 950.598 439.172ZM949.25 382.336C944.875 382.336 941.203 383.938 938.235 387.141C935.266 390.305 933.43 394.758 932.727 400.5H964.485V399.68C964.172 394.172 962.688 389.914 960.031 386.906C957.375 383.859 953.781 382.336 949.25 382.336ZM1014.23 439.172C1005.64 439.172 998.645 436.359 993.254 430.734C987.864 425.07 985.168 417.512 985.168 408.059V406.066C985.168 399.777 986.36 394.172 988.742 389.25C991.164 384.289 994.524 380.422 998.821 377.648C1003.16 374.836 1007.84 373.43 1012.88 373.43C1021.13 373.43 1027.53 376.145 1032.1 381.574C1036.67 387.004 1038.96 394.777 1038.96 404.895V409.406H996.008C996.164 415.656 997.981 420.715 1001.46 424.582C1004.97 428.41 1009.43 430.324 1014.82 430.324C1018.64 430.324 1021.89 429.543 1024.54 427.98C1027.2 426.418 1029.52 424.348 1031.52 421.77L1038.14 426.926C1032.82 435.09 1024.86 439.172 1014.23 439.172ZM1012.88 382.336C1008.51 382.336 1004.84 383.938 1001.87 387.141C998.899 390.305 997.063 394.758 996.36 400.5H1028.12V399.68C1027.8 394.172 1026.32 389.914 1023.66 386.906C1021.01 383.859 1017.41 382.336 1012.88 382.336ZM1066.26 359.25V374.602H1078.1V382.98H1066.26V422.297C1066.26 424.836 1066.79 426.75 1067.84 428.039C1068.9 429.289 1070.7 429.914 1073.23 429.914C1074.48 429.914 1076.2 429.68 1078.39 429.211V438C1075.54 438.781 1072.77 439.172 1070.07 439.172C1065.23 439.172 1061.57 437.707 1059.11 434.777C1056.65 431.848 1055.42 427.688 1055.42 422.297V382.98H1043.88V374.602H1055.42V359.25H1066.26ZM1135.29 359.25V374.602H1147.12V382.98H1135.29V422.297C1135.29 424.836 1135.81 426.75 1136.87 428.039C1137.92 429.289 1139.72 429.914 1142.26 429.914C1143.51 429.914 1145.23 429.68 1147.41 429.211V438C1144.56 438.781 1141.79 439.172 1139.09 439.172C1134.25 439.172 1130.6 437.707 1128.14 434.777C1125.68 431.848 1124.45 427.688 1124.45 422.297V382.98H1112.9V374.602H1124.45V359.25H1135.29ZM1170.68 382.277C1175.48 376.379 1181.73 373.43 1189.43 373.43C1202.82 373.43 1209.58 380.988 1209.7 396.105V438H1198.86V396.047C1198.82 391.477 1197.77 388.098 1195.7 385.91C1193.66 383.723 1190.48 382.629 1186.14 382.629C1182.63 382.629 1179.54 383.566 1176.89 385.441C1174.23 387.316 1172.16 389.777 1170.68 392.824V438H1159.84V348H1170.68V382.277ZM1252.24 439.172C1243.64 439.172 1236.65 436.359 1231.26 430.734C1225.87 425.07 1223.18 417.512 1223.18 408.059V406.066C1223.18 399.777 1224.37 394.172 1226.75 389.25C1229.17 384.289 1232.53 380.422 1236.83 377.648C1241.16 374.836 1245.85 373.43 1250.89 373.43C1259.13 373.43 1265.54 376.145 1270.11 381.574C1274.68 387.004 1276.97 394.777 1276.97 404.895V409.406H1234.02C1234.17 415.656 1235.99 420.715 1239.47 424.582C1242.98 428.41 1247.43 430.324 1252.82 430.324C1256.65 430.324 1259.89 429.543 1262.55 427.98C1265.21 426.418 1267.53 424.348 1269.52 421.77L1276.14 426.926C1270.83 435.09 1262.86 439.172 1252.24 439.172ZM1250.89 382.336C1246.52 382.336 1242.84 383.938 1239.88 387.141C1236.91 390.305 1235.07 394.758 1234.37 400.5H1266.13V399.68C1265.81 394.172 1264.33 389.914 1261.67 386.906C1259.02 383.859 1255.42 382.336 1250.89 382.336ZM1377.63 361.945H1350.21V438H1339.02V361.945H1311.65V352.688H1377.63V361.945ZM1438.51 398.566H1401.54V428.801H1444.48V438H1390.29V352.688H1443.9V361.945H1401.54V389.367H1438.51V398.566ZM1458.49 438V352.688H1482.57C1489.99 352.688 1496.55 354.328 1502.26 357.609C1507.96 360.891 1512.36 365.559 1515.44 371.613C1518.57 377.668 1520.15 384.621 1520.19 392.473V397.922C1520.19 405.969 1518.63 413.02 1515.5 419.074C1512.41 425.129 1507.98 429.777 1502.2 433.02C1496.46 436.262 1489.76 437.922 1482.1 438H1458.49ZM1469.74 361.945V428.801H1481.57C1490.25 428.801 1496.98 426.105 1501.79 420.715C1506.63 415.324 1509.05 407.648 1509.05 397.688V392.707C1509.05 383.02 1506.77 375.5 1502.2 370.148C1497.67 364.758 1491.22 362.023 1482.86 361.945H1469.74ZM1556.81 397.746L1570.87 374.602H1583.53L1562.79 405.949L1584.17 438H1571.63L1556.98 414.27L1542.34 438H1529.74L1551.13 405.949L1530.38 374.602H1542.92L1556.81 397.746ZM1656.83 352.688V410.695C1656.79 418.742 1654.25 425.324 1649.21 430.441C1644.21 435.559 1637.41 438.43 1628.82 439.055L1625.83 439.172C1616.5 439.172 1609.05 436.652 1603.51 431.613C1597.96 426.574 1595.15 419.641 1595.07 410.812V352.688H1606.2V410.461C1606.2 416.633 1607.9 421.438 1611.3 424.875C1614.7 428.273 1619.54 429.973 1625.83 429.973C1632.2 429.973 1637.06 428.273 1640.42 424.875C1643.82 421.477 1645.52 416.691 1645.52 410.52V352.688H1656.83ZM1670.01 405.715C1670.01 399.504 1671.22 393.918 1673.64 388.957C1676.11 383.996 1679.5 380.168 1683.84 377.473C1688.22 374.777 1693.2 373.43 1698.78 373.43C1707.41 373.43 1714.39 376.418 1719.7 382.395C1725.05 388.371 1727.73 396.32 1727.73 406.242V407.004C1727.73 413.176 1726.54 418.723 1724.15 423.645C1721.81 428.527 1718.43 432.336 1714.02 435.07C1709.64 437.805 1704.6 439.172 1698.9 439.172C1690.3 439.172 1683.33 436.184 1677.98 430.207C1672.67 424.23 1670.01 416.32 1670.01 406.477V405.715ZM1680.91 407.004C1680.91 414.035 1682.53 419.68 1685.77 423.938C1689.05 428.195 1693.43 430.324 1698.9 430.324C1704.41 430.324 1708.78 428.176 1712.02 423.879C1715.27 419.543 1716.89 413.488 1716.89 405.715C1716.89 398.762 1715.23 393.137 1711.91 388.84C1708.63 384.504 1704.25 382.336 1698.78 382.336C1693.43 382.336 1689.11 384.465 1685.83 388.723C1682.55 392.98 1680.91 399.074 1680.91 407.004ZM1746.65 438V382.98H1736.63V374.602H1746.65V368.098C1746.65 361.301 1748.47 356.047 1752.1 352.336C1755.73 348.625 1760.87 346.77 1767.51 346.77C1770.01 346.77 1772.49 347.102 1774.95 347.766L1774.37 356.555C1772.53 356.203 1770.58 356.027 1768.51 356.027C1764.99 356.027 1762.28 357.062 1760.36 359.133C1758.45 361.164 1757.49 364.094 1757.49 367.922V374.602H1771.03V382.98H1757.49V438H1746.65ZM1803.14 411.105L1804.78 422.355L1807.18 412.219L1824.05 352.688H1833.55L1850.01 412.219L1852.36 422.531L1854.17 411.047L1867.41 352.688H1878.72L1858.04 438H1847.79L1830.21 375.832L1828.86 369.328L1827.51 375.832L1809.29 438H1799.04L1778.41 352.688H1789.66L1803.14 411.105ZM1974.11 438H1918.22V430.207L1947.75 397.395C1952.12 392.434 1955.13 388.41 1956.77 385.324C1958.45 382.199 1959.29 378.977 1959.29 375.656C1959.29 371.203 1957.94 367.551 1955.25 364.699C1952.55 361.848 1948.96 360.422 1944.47 360.422C1939.07 360.422 1934.88 361.965 1931.87 365.051C1928.9 368.098 1927.41 372.355 1927.41 377.824H1916.57C1916.57 369.973 1919.09 363.625 1924.13 358.781C1929.21 353.938 1935.99 351.516 1944.47 351.516C1952.39 351.516 1958.66 353.605 1963.27 357.785C1967.88 361.926 1970.19 367.453 1970.19 374.367C1970.19 382.766 1964.84 392.766 1954.13 404.367L1931.28 429.152H1974.11V438ZM2039.09 401.613C2039.09 414.309 2036.93 423.742 2032.59 429.914C2028.25 436.086 2021.48 439.172 2012.26 439.172C2003.16 439.172 1996.42 436.164 1992.04 430.148C1987.67 424.094 1985.4 415.07 1985.25 403.078V388.605C1985.25 376.066 1987.41 366.75 1991.75 360.656C1996.09 354.562 2002.88 351.516 2012.14 351.516C2021.32 351.516 2028.08 354.465 2032.41 360.363C2036.75 366.223 2038.98 375.285 2039.09 387.551V401.613ZM2028.25 386.789C2028.25 377.609 2026.97 370.93 2024.39 366.75C2021.81 362.531 2017.73 360.422 2012.14 360.422C2006.59 360.422 2002.55 362.512 2000.01 366.691C1997.47 370.871 1996.16 377.297 1996.09 385.969V403.312C1996.09 412.531 1997.41 419.348 2000.07 423.762C2002.77 428.137 2006.83 430.324 2012.26 430.324C2017.61 430.324 2021.57 428.254 2024.15 424.113C2026.77 419.973 2028.14 413.449 2028.25 404.543V386.789ZM2108.88 438H2052.98V430.207L2082.51 397.395C2086.89 392.434 2089.89 388.41 2091.54 385.324C2093.22 382.199 2094.05 378.977 2094.05 375.656C2094.05 371.203 2092.71 367.551 2090.01 364.699C2087.32 361.848 2083.72 360.422 2079.23 360.422C2073.84 360.422 2069.64 361.965 2066.63 365.051C2063.66 368.098 2062.18 372.355 2062.18 377.824H2051.34C2051.34 369.973 2053.86 363.625 2058.9 358.781C2063.98 353.938 2070.75 351.516 2079.23 351.516C2087.16 351.516 2093.43 353.605 2098.04 357.785C2102.65 361.926 2104.95 367.453 2104.95 374.367C2104.95 382.766 2099.6 392.766 2088.9 404.367L2066.05 429.152H2108.88V438ZM2155.99 438H2145.09V365.754L2123.23 373.781V363.938L2154.29 352.277H2155.99V438ZM2245.46 399.973C2235.81 397.199 2228.78 393.801 2224.37 389.777C2219.99 385.715 2217.8 380.715 2217.8 374.777C2217.8 368.059 2220.48 362.512 2225.83 358.137C2231.22 353.723 2238.22 351.516 2246.81 351.516C2252.67 351.516 2257.88 352.648 2262.45 354.914C2267.06 357.18 2270.62 360.305 2273.12 364.289C2275.66 368.273 2276.93 372.629 2276.93 377.355H2265.62C2265.62 372.199 2263.98 368.156 2260.7 365.227C2257.41 362.258 2252.79 360.773 2246.81 360.773C2241.26 360.773 2236.93 362.004 2233.8 364.465C2230.72 366.887 2229.17 370.266 2229.17 374.602C2229.17 378.078 2230.64 381.027 2233.57 383.449C2236.54 385.832 2241.55 388.02 2248.63 390.012C2255.73 392.004 2261.28 394.211 2265.27 396.633C2269.29 399.016 2272.26 401.809 2274.17 405.012C2276.13 408.215 2277.1 411.984 2277.1 416.32C2277.1 423.234 2274.41 428.781 2269.02 432.961C2263.63 437.102 2256.42 439.172 2247.39 439.172C2241.54 439.172 2236.07 438.059 2230.99 435.832C2225.91 433.566 2221.98 430.48 2219.21 426.574C2216.48 422.668 2215.11 418.234 2215.11 413.273H2226.42C2226.42 418.43 2228.31 422.512 2232.1 425.52C2235.93 428.488 2241.03 429.973 2247.39 429.973C2253.33 429.973 2257.88 428.762 2261.05 426.34C2264.21 423.918 2265.79 420.617 2265.79 416.438C2265.79 412.258 2264.33 409.035 2261.4 406.77C2258.47 404.465 2253.16 402.199 2245.46 399.973ZM2343.43 407.004C2343.43 416.652 2341.22 424.426 2336.81 430.324C2332.39 436.223 2326.42 439.172 2318.88 439.172C2311.18 439.172 2305.13 436.73 2300.72 431.848V462.375H2289.88V374.602H2299.78L2300.3 381.633C2304.72 376.164 2310.85 373.43 2318.7 373.43C2326.32 373.43 2332.34 376.301 2336.75 382.043C2341.2 387.785 2343.43 395.773 2343.43 406.008V407.004ZM2332.59 405.773C2332.59 398.625 2331.07 392.98 2328.02 388.84C2324.97 384.699 2320.79 382.629 2315.48 382.629C2308.92 382.629 2304 385.539 2300.72 391.359V421.652C2303.96 427.434 2308.92 430.324 2315.6 430.324C2320.79 430.324 2324.91 428.273 2327.96 424.172C2331.05 420.031 2332.59 413.898 2332.59 405.773ZM2383.57 439.172C2374.97 439.172 2367.98 436.359 2362.59 430.734C2357.2 425.07 2354.5 417.512 2354.5 408.059V406.066C2354.5 399.777 2355.7 394.172 2358.08 389.25C2360.5 384.289 2363.86 380.422 2368.16 377.648C2372.49 374.836 2377.18 373.43 2382.22 373.43C2390.46 373.43 2396.87 376.145 2401.44 381.574C2406.01 387.004 2408.29 394.777 2408.29 404.895V409.406H2365.34C2365.5 415.656 2367.32 420.715 2370.79 424.582C2374.31 428.41 2378.76 430.324 2384.15 430.324C2387.98 430.324 2391.22 429.543 2393.88 427.98C2396.54 426.418 2398.86 424.348 2400.85 421.77L2407.47 426.926C2402.16 435.09 2394.19 439.172 2383.57 439.172ZM2382.22 382.336C2377.84 382.336 2374.17 383.938 2371.2 387.141C2368.23 390.305 2366.4 394.758 2365.7 400.5H2397.45V399.68C2397.14 394.172 2395.66 389.914 2393 386.906C2390.34 383.859 2386.75 382.336 2382.22 382.336ZM2460.03 438C2459.41 436.75 2458.9 434.523 2458.51 431.32C2453.47 436.555 2447.45 439.172 2440.46 439.172C2434.21 439.172 2429.07 437.414 2425.05 433.898C2421.07 430.344 2419.07 425.852 2419.07 420.422C2419.07 413.82 2421.57 408.703 2426.57 405.07C2431.61 401.398 2438.68 399.562 2447.79 399.562H2458.33V394.582C2458.33 390.793 2457.2 387.785 2454.93 385.559C2452.67 383.293 2449.33 382.16 2444.91 382.16C2441.05 382.16 2437.8 383.137 2435.19 385.09C2432.57 387.043 2431.26 389.406 2431.26 392.18H2420.36C2420.36 389.016 2421.48 385.969 2423.7 383.039C2425.97 380.07 2429.02 377.727 2432.84 376.008C2436.71 374.289 2440.95 373.43 2445.56 373.43C2452.86 373.43 2458.59 375.266 2462.73 378.938C2466.87 382.57 2469.02 387.59 2469.17 393.996V423.176C2469.17 428.996 2469.91 433.625 2471.4 437.062V438H2460.03ZM2442.04 429.738C2445.44 429.738 2448.66 428.859 2451.71 427.102C2454.76 425.344 2456.97 423.059 2458.33 420.246V407.238H2449.84C2436.55 407.238 2429.91 411.125 2429.91 418.898C2429.91 422.297 2431.05 424.953 2433.31 426.867C2435.58 428.781 2438.49 429.738 2442.04 429.738ZM2503.86 408.645L2497.06 415.734V438H2486.22V348H2497.06V402.434L2502.86 395.461L2522.61 374.602H2535.79L2511.13 401.086L2538.66 438H2525.95L2503.86 408.645ZM2572.12 439.172C2563.53 439.172 2556.54 436.359 2551.14 430.734C2545.75 425.07 2543.06 417.512 2543.06 408.059V406.066C2543.06 399.777 2544.25 394.172 2546.63 389.25C2549.05 384.289 2552.41 380.422 2556.71 377.648C2561.05 374.836 2565.73 373.43 2570.77 373.43C2579.02 373.43 2585.42 376.145 2589.99 381.574C2594.56 387.004 2596.85 394.777 2596.85 404.895V409.406H2553.9C2554.05 415.656 2555.87 420.715 2559.35 424.582C2562.86 428.41 2567.32 430.324 2572.71 430.324C2576.54 430.324 2579.78 429.543 2582.43 427.98C2585.09 426.418 2587.41 424.348 2589.41 421.77L2596.03 426.926C2590.72 435.09 2582.75 439.172 2572.12 439.172ZM2570.77 382.336C2566.4 382.336 2562.73 383.938 2559.76 387.141C2556.79 390.305 2554.95 394.758 2554.25 400.5H2586.01V399.68C2585.7 394.172 2584.21 389.914 2581.55 386.906C2578.9 383.859 2575.3 382.336 2570.77 382.336ZM2640.09 384.328C2638.45 384.055 2636.67 383.918 2634.76 383.918C2627.65 383.918 2622.82 386.945 2620.29 393V438H2609.45V374.602H2619.99L2620.17 381.926C2623.72 376.262 2628.76 373.43 2635.29 373.43C2637.39 373.43 2639 373.703 2640.09 374.25V384.328ZM2687.02 421.184C2687.02 418.254 2685.91 415.988 2683.68 414.387C2681.5 412.746 2677.65 411.34 2672.14 410.168C2666.67 408.996 2662.32 407.59 2659.07 405.949C2655.87 404.309 2653.49 402.355 2651.93 400.09C2650.4 397.824 2649.64 395.129 2649.64 392.004C2649.64 386.809 2651.83 382.414 2656.2 378.82C2660.62 375.227 2666.24 373.43 2673.08 373.43C2680.27 373.43 2686.09 375.285 2690.54 378.996C2695.03 382.707 2697.28 387.453 2697.28 393.234H2686.38C2686.38 390.266 2685.11 387.707 2682.57 385.559C2680.07 383.41 2676.91 382.336 2673.08 382.336C2669.13 382.336 2666.05 383.195 2663.82 384.914C2661.59 386.633 2660.48 388.879 2660.48 391.652C2660.48 394.27 2661.52 396.242 2663.59 397.57C2665.66 398.898 2669.39 400.168 2674.78 401.379C2680.21 402.59 2684.6 404.035 2687.96 405.715C2691.32 407.395 2693.8 409.426 2695.4 411.809C2697.04 414.152 2697.86 417.023 2697.86 420.422C2697.86 426.086 2695.6 430.637 2691.07 434.074C2686.54 437.473 2680.66 439.172 2673.43 439.172C2668.35 439.172 2663.86 438.273 2659.95 436.477C2656.05 434.68 2652.98 432.18 2650.75 428.977C2648.57 425.734 2647.47 422.238 2647.47 418.488H2658.31C2658.51 422.121 2659.95 425.012 2662.65 427.16C2665.38 429.27 2668.98 430.324 2673.43 430.324C2677.53 430.324 2680.81 429.504 2683.27 427.863C2685.77 426.184 2687.02 423.957 2687.02 421.184ZM2724.11 413.918H2714.33L2713.57 352.688H2724.93L2724.11 413.918ZM2713.16 432.551C2713.16 430.793 2713.68 429.328 2714.74 428.156C2715.83 426.945 2717.43 426.34 2719.54 426.34C2721.65 426.34 2723.25 426.945 2724.35 428.156C2725.44 429.328 2725.99 430.793 2725.99 432.551C2725.99 434.309 2725.44 435.773 2724.35 436.945C2723.25 438.078 2721.65 438.645 2719.54 438.645C2717.43 438.645 2715.83 438.078 2714.74 436.945C2713.68 435.773 2713.16 434.309 2713.16 432.551Z" fill="white"/>
<path d="M1499.42 251.006C1499.42 247.298 1498.11 244.463 1495.49 242.5C1492.88 240.493 1488.16 238.4 1481.36 236.219C1474.55 233.994 1469.17 231.813 1465.2 229.676C1454.38 223.831 1448.97 215.957 1448.97 206.056C1448.97 200.909 1450.41 196.328 1453.29 192.315C1456.21 188.259 1460.38 185.096 1465.79 182.828C1471.24 180.56 1477.35 179.426 1484.11 179.426C1490.91 179.426 1496.98 180.669 1502.3 183.155C1507.62 185.598 1511.74 189.066 1514.66 193.559C1517.63 198.051 1519.11 203.155 1519.11 208.869H1499.48C1499.48 204.507 1498.11 201.127 1495.36 198.728C1492.61 196.285 1488.75 195.063 1483.78 195.063C1478.98 195.063 1475.25 196.089 1472.59 198.139C1469.93 200.145 1468.6 202.806 1468.6 206.121C1468.6 209.218 1470.15 211.813 1473.25 213.907C1476.39 216.001 1480.99 217.964 1487.05 219.796C1498.22 223.155 1506.35 227.32 1511.46 232.293C1516.56 237.266 1519.11 243.46 1519.11 250.875C1519.11 259.119 1515.99 265.597 1509.76 270.308C1503.52 274.975 1495.12 277.309 1484.57 277.309C1477.24 277.309 1470.56 275.978 1464.54 273.317C1458.52 270.613 1453.92 266.927 1450.74 262.26C1447.6 257.592 1446.03 252.184 1446.03 246.033H1465.72C1465.72 256.546 1472 261.802 1484.57 261.802C1489.23 261.802 1492.88 260.864 1495.49 258.988C1498.11 257.069 1499.42 254.408 1499.42 251.006ZM1552.09 242.435V276H1532.46V180.734H1569.62C1576.78 180.734 1583.06 182.043 1588.47 184.66C1593.92 187.277 1598.11 191.007 1601.03 195.849C1603.95 200.647 1605.41 206.121 1605.41 212.271C1605.41 221.606 1602.21 228.978 1595.8 234.387C1589.43 239.752 1580.59 242.435 1569.3 242.435H1552.09ZM1552.09 226.535H1569.62C1574.82 226.535 1578.76 225.314 1581.47 222.871C1584.22 220.428 1585.59 216.939 1585.59 212.402C1585.59 207.735 1584.22 203.962 1581.47 201.083C1578.72 198.204 1574.92 196.721 1570.08 196.634H1552.09V226.535ZM1676.27 234.714H1638.59V260.231H1682.82V276H1618.96V180.734H1682.69V196.634H1638.59V219.338H1676.27V234.714ZM1748.12 256.371H1713.7L1707.16 276H1686.29L1721.75 180.734H1739.94L1775.6 276H1754.72L1748.12 256.371ZM1719 240.472H1742.82L1730.84 204.812L1719 240.472ZM1814.33 237.789L1804.12 248.781V276H1784.5V180.734H1804.12V223.918L1812.76 212.075L1837.04 180.734H1861.18L1827.35 223.067L1862.16 276H1838.8L1814.33 237.789ZM1926.87 234.714H1889.18V260.231H1933.41V276H1869.55V180.734H1933.28V196.634H1889.18V219.338H1926.87V234.714ZM1980.2 241.126H1964.56V276H1944.93V180.734H1980.33C1991.58 180.734 2000.26 183.243 2006.37 188.259C2012.47 193.275 2015.53 200.363 2015.53 209.523C2015.53 216.023 2014.11 221.453 2011.27 225.815C2008.48 230.134 2004.23 233.58 1998.52 236.153L2019.13 275.084V276H1998.06L1980.2 241.126ZM1964.56 225.227H1980.39C1985.32 225.227 1989.14 223.983 1991.84 221.497C1994.55 218.967 1995.9 215.499 1995.9 211.094C1995.9 206.601 1994.61 203.068 1992.04 200.494C1989.51 197.921 1985.6 196.634 1980.33 196.634H1964.56V225.227ZM2079.91 251.006C2079.91 247.298 2078.6 244.463 2075.98 242.5C2073.37 240.493 2068.66 238.4 2061.85 236.219C2055.05 233.994 2049.66 231.813 2045.69 229.676C2034.87 223.831 2029.46 215.957 2029.46 206.056C2029.46 200.909 2030.9 196.328 2033.78 192.315C2036.71 188.259 2040.87 185.096 2046.28 182.828C2051.73 180.56 2057.84 179.426 2064.6 179.426C2071.4 179.426 2077.47 180.669 2082.79 183.155C2088.11 185.598 2092.23 189.066 2095.16 193.559C2098.12 198.051 2099.6 203.155 2099.6 208.869H2079.98C2079.98 204.507 2078.6 201.127 2075.85 198.728C2073.11 196.285 2069.25 195.063 2064.27 195.063C2059.47 195.063 2055.75 196.089 2053.08 198.139C2050.42 200.145 2049.09 202.806 2049.09 206.121C2049.09 209.218 2050.64 211.813 2053.74 213.907C2056.88 216.001 2061.48 217.964 2067.54 219.796C2078.71 223.155 2086.85 227.32 2091.95 232.293C2097.05 237.266 2099.6 243.46 2099.6 250.875C2099.6 259.119 2096.49 265.597 2090.25 270.308C2084.01 274.975 2075.61 277.309 2065.06 277.309C2057.73 277.309 2051.06 275.978 2045.04 273.317C2039.02 270.613 2034.42 266.927 2031.23 262.26C2028.09 257.592 2026.52 252.184 2026.52 246.033H2046.21C2046.21 256.546 2052.5 261.802 2065.06 261.802C2069.73 261.802 2073.37 260.864 2075.98 258.988C2078.6 257.069 2079.91 254.408 2079.91 251.006Z" fill="white"/>
</svg>
