<?xml version="1.0" encoding="UTF-8" standalone="no"?><!DOCTYPE svg PUBLIC "-//W3C//DTD SVG 1.1//EN" "http://www.w3.org/Graphics/SVG/1.1/DTD/svg11.dtd"><svg width="100%" height="100%" viewBox="0 0 57 57" version="1.1" xmlns="http://www.w3.org/2000/svg" xmlns:xlink="http://www.w3.org/1999/xlink" xml:space="preserve" style="fill-rule:evenodd;clip-rule:evenodd;stroke-linejoin:round;stroke-miterlimit:1.41421;"><g><path d="M52.119,16.404c-0.571,-2.135 -2.252,-3.816 -4.387,-4.387c-3.87,-1.037 -19.386,-1.037 -19.386,-1.037c0,0 -15.515,0 -19.385,1.037c-2.134,0.571 -3.816,2.252 -4.387,4.387c-1.036,3.869 -1.036,11.943 -1.036,11.943c0,0 0,8.073 1.036,11.942c0.571,2.135 2.253,3.816 4.387,4.387c3.87,1.037 19.386,1.037 19.386,1.037c0,0 15.515,0 19.385,-1.037c2.135,-0.571 3.816,-2.252 4.387,-4.387c1.036,-3.869 1.036,-11.942 1.036,-11.942c0,0 0,-8.074 -1.036,-11.943Zm-28.734,19.385l0,-14.885l12.89,7.443l-12.89,7.442Z" style="fill:#e62b1e;"/></g></svg>