<svg width="21965" height="26035" viewBox="0 0 21965 26035" fill="none" xmlns="http://www.w3.org/2000/svg">
<g clip-path="url(#clip0)">
<rect width="21964.7" height="26035" fill="white"/>
<rect x="2474.71" y="23668.4" width="16011.5" height="3113.12" fill="#C4C4C4"/>
<rect y="23668.4" width="21964.7" height="3113.12" fill="#C4C4C4"/>
<line x1="10306.3" y1="16340.3" x2="13735.1" y2="26412" stroke="black" stroke-width="35.5109"/>
<line x1="10306.3" y1="16351.8" x2="6883.04" y2="26423.4" stroke="black" stroke-width="35.5109"/>
<line x1="10303.8" y1="16356.5" x2="3226.1" y2="26045.5" stroke="black" stroke-width="35.5109"/>
<line y1="-17.7554" x2="11998.7" y2="-17.7554" transform="matrix(0.589871 0.807497 0.807497 -0.589871 10358.1 16346.1)" stroke="black" stroke-width="35.5109"/>
<line x1="10307.2" y1="16346.1" x2="10307.2" y2="27053" stroke="black" stroke-width="35.5109"/>
<line x1="10301.3" y1="16332.8" x2="21210.2" y2="26028" stroke="black" stroke-width="35.5109"/>
<line y1="-17.7554" x2="14594.6" y2="-17.7554" transform="matrix(-0.747463 0.664303 0.664303 0.747463 10289.4 16346.1)" stroke="black" stroke-width="35.5109"/>
<rect x="1242.09" y="11485" width="18080.6" height="12183.4" fill="white"/>
<rect x="2795.89" y="17287.5" width="520.826" height="6349.35" fill="#B78346" stroke="black" stroke-width="63.1305"/>
<path d="M4614.05 14501.1C4614.05 15151.5 4049.21 15682.4 3347.89 15682.4C2646.56 15682.4 2081.73 15151.5 2081.73 14501.1C2081.73 13850.6 2646.56 13319.7 3347.89 13319.7C4049.21 13319.7 4614.05 13850.6 4614.05 14501.1Z" fill="#3BA317" stroke="black" stroke-width="63.1305"/>
<path d="M3692.34 16137.3C3692.34 16964.4 2971.81 17638.6 2078.18 17638.6C1184.55 17638.6 464.011 16964.4 464.011 16137.3C464.011 15310.2 1184.55 14636 2078.18 14636C2971.81 14636 3692.34 15310.2 3692.34 16137.3Z" fill="#3BA317" stroke="black" stroke-width="63.1305"/>
<path d="M6287.79 16729.6C6287.79 17717.7 5428.36 18522.5 4363.5 18522.5C3298.63 18522.5 2439.2 17717.7 2439.2 16729.6C2439.2 15741.4 3298.63 14936.7 4363.5 14936.7C5428.36 14936.7 6287.79 15741.4 6287.79 16729.6Z" fill="#3BA317" stroke="black" stroke-width="63.1305"/>
</g>
<defs>
<clipPath id="clip0">
<rect width="21964.7" height="26035" fill="white"/>
</clipPath>
</defs>
</svg>
