<?xml version="1.0" encoding="UTF-8" standalone="no"?>
<!DOCTYPE svg PUBLIC "-//W3C//DTD SVG 1.1//EN" "http://www.w3.org/Graphics/SVG/1.1/DTD/svg11.dtd">
<svg width="100%" height="100%" viewBox="0 0 83 83" version="1.1" xmlns="http://www.w3.org/2000/svg" xmlns:xlink="http://www.w3.org/1999/xlink" xml:space="preserve" style="fill-rule:evenodd;clip-rule:evenodd;stroke-miterlimit:10;">
    <g id="Group_1186" transform="matrix(1,0,0,1,0.932,0.486)">
        <g id="Path_23" transform="matrix(1,0,0,1,-839.655,-99.3)">
            <path d="M867.529,138.125C871.271,132.017 888.011,105.348 891.002,99.987C891.187,99.539 891.644,99.26 892.128,99.3C901.307,99.321 910.484,99.327 919.659,99.318C919.883,99.318 920.107,99.35 920.423,99.375C920.185,99.742 920.013,100.016 919.831,100.286C911.351,113.029 902.866,125.769 894.376,138.506C893.953,138.969 893.942,139.683 894.351,140.158C901.025,150.196 907.68,160.246 914.317,170.308C916.73,173.953 919.152,177.594 921.584,181.229L893.44,181.229C892.752,181.224 892.114,180.857 891.764,180.264C888.359,174.664 871.016,146.364 867.6,140.745C867.08,139.958 867.053,138.939 867.529,138.125Z" style="fill:rgb(255,216,214);fill-rule:nonzero;"/>
        </g>
        <g id="Path_24" transform="matrix(1,0,0,1,-493.58,-99.686)">
            <path d="M523.139,180.757C526.411,175.382 544.301,146.285 547.665,140.647C548.013,139.998 547.96,139.204 547.528,138.607C543.863,132.758 526.622,105.288 523.995,100.433C523.833,100.032 523.463,99.751 523.034,99.7C516.234,99.7 510.261,99.7 510.034,99.7C510.266,100.074 527.654,126.223 536.198,139.024C536.545,139.41 536.556,140 536.222,140.398C527.251,153.928 509.049,181.409 508.901,181.608L521.544,181.608C522.169,181.554 522.746,181.246 523.139,180.757Z" style="fill:rgb(230,43,30);fill-rule:nonzero;stroke:rgb(230,43,30);stroke-width:1px;"/>
        </g>
        <g id="Path_25" transform="matrix(1,0,0,1,-66.5,-99.686)">
            <path d="M103.826,139.024C95.29,126.234 77.919,100.106 77.663,99.7L67.633,99.7C67.864,100.074 85.253,126.223 93.796,139.024C94.144,139.41 94.155,139.999 93.821,140.398C84.85,153.928 66.648,181.409 66.5,181.608L76.53,181.608C76.674,181.408 94.876,153.928 103.851,140.398C104.182,139.999 104.172,139.411 103.826,139.024Z" style="fill:rgb(230,43,30);fill-rule:nonzero;stroke:rgb(230,43,30);stroke-width:1px;"/>
        </g>
    </g>
</svg>
