<svg width="3546" height="651" viewBox="0 0 3546 651" fill="none" xmlns="http://www.w3.org/2000/svg">
<rect x="4" y="4" width="3538" height="643" fill="#AF7301" stroke="black" stroke-width="8"/>
<line y1="88" x2="3546" y2="88" stroke="black" stroke-width="8"/>
<path d="M0 563H3546" stroke="black" stroke-width="8"/>
<path d="M0 609H3546" stroke="black" stroke-width="8"/>
<path d="M0 44H3546" stroke="black" stroke-width="8"/>
<line x1="120.326" y1="651" x2="120.326" y2="-1.29384e-07" stroke="black" stroke-width="8"/>
<line x1="58.1641" y1="651" x2="58.1641" y2="-1.29384e-07" stroke="black" stroke-width="8"/>
<line x1="3479.84" y1="651" x2="3479.84" y2="-1.29384e-07" stroke="black" stroke-width="8"/>
<line x1="3416.32" y1="651" x2="3416.32" y2="-1.29384e-07" stroke="black" stroke-width="8"/>
<path d="M781.262 352.688L809.153 422.297L837.043 352.688H851.633V438H840.383V404.777L841.438 368.918L813.43 438H804.817L776.867 369.094L777.981 404.777V438H766.731V352.688H781.262ZM896.106 439.172C887.512 439.172 880.52 436.359 875.129 430.734C869.739 425.07 867.043 417.512 867.043 408.059V406.066C867.043 399.777 868.235 394.172 870.617 389.25C873.039 384.289 876.399 380.422 880.696 377.648C885.031 374.836 889.719 373.43 894.758 373.43C903 373.43 909.406 376.145 913.977 381.574C918.547 387.004 920.832 394.777 920.832 404.895V409.406H877.883C878.039 415.656 879.856 420.715 883.332 424.582C886.848 428.41 891.301 430.324 896.692 430.324C900.52 430.324 903.762 429.543 906.418 427.98C909.074 426.418 911.399 424.348 913.391 421.77L920.012 426.926C914.699 435.09 906.731 439.172 896.106 439.172ZM894.758 382.336C890.383 382.336 886.711 383.938 883.742 387.141C880.774 390.305 878.938 394.758 878.235 400.5H909.992V399.68C909.68 394.172 908.196 389.914 905.539 386.906C902.883 383.859 899.289 382.336 894.758 382.336ZM959.739 439.172C951.145 439.172 944.153 436.359 938.762 430.734C933.371 425.07 930.676 417.512 930.676 408.059V406.066C930.676 399.777 931.867 394.172 934.25 389.25C936.672 384.289 940.031 380.422 944.328 377.648C948.664 374.836 953.352 373.43 958.391 373.43C966.633 373.43 973.039 376.145 977.61 381.574C982.18 387.004 984.465 394.777 984.465 404.895V409.406H941.516C941.672 415.656 943.489 420.715 946.965 424.582C950.481 428.41 954.934 430.324 960.324 430.324C964.153 430.324 967.395 429.543 970.051 427.98C972.707 426.418 975.031 424.348 977.024 421.77L983.645 426.926C978.332 435.09 970.364 439.172 959.739 439.172ZM958.391 382.336C954.016 382.336 950.344 383.938 947.375 387.141C944.406 390.305 942.571 394.758 941.867 400.5H973.625V399.68C973.313 394.172 971.828 389.914 969.172 386.906C966.516 383.859 962.922 382.336 958.391 382.336ZM1011.77 359.25V374.602H1023.61V382.98H1011.77V422.297C1011.77 424.836 1012.3 426.75 1013.35 428.039C1014.41 429.289 1016.2 429.914 1018.74 429.914C1019.99 429.914 1021.71 429.68 1023.9 429.211V438C1021.05 438.781 1018.27 439.172 1015.58 439.172C1010.73 439.172 1007.08 437.707 1004.62 434.777C1002.16 431.848 1000.93 427.688 1000.93 422.297V382.98H989.387V374.602H1000.93V359.25H1011.77ZM1080.79 359.25V374.602H1092.63V382.98H1080.79V422.297C1080.79 424.836 1081.32 426.75 1082.38 428.039C1083.43 429.289 1085.23 429.914 1087.77 429.914C1089.02 429.914 1090.73 429.68 1092.92 429.211V438C1090.07 438.781 1087.3 439.172 1084.6 439.172C1079.76 439.172 1076.11 437.707 1073.64 434.777C1071.18 431.848 1069.95 427.688 1069.95 422.297V382.98H1058.41V374.602H1069.95V359.25H1080.79ZM1116.18 382.277C1120.99 376.379 1127.24 373.43 1134.93 373.43C1148.33 373.43 1155.09 380.988 1155.21 396.105V438H1144.37V396.047C1144.33 391.477 1143.27 388.098 1141.2 385.91C1139.17 383.723 1135.99 382.629 1131.65 382.629C1128.14 382.629 1125.05 383.566 1122.39 385.441C1119.74 387.316 1117.67 389.777 1116.18 392.824V438H1105.34V348H1116.18V382.277ZM1197.75 439.172C1189.15 439.172 1182.16 436.359 1176.77 430.734C1171.38 425.07 1168.68 417.512 1168.68 408.059V406.066C1168.68 399.777 1169.88 394.172 1172.26 389.25C1174.68 384.289 1178.04 380.422 1182.34 377.648C1186.67 374.836 1191.36 373.43 1196.4 373.43C1204.64 373.43 1211.05 376.145 1215.62 381.574C1220.19 387.004 1222.47 394.777 1222.47 404.895V409.406H1179.52C1179.68 415.656 1181.5 420.715 1184.97 424.582C1188.49 428.41 1192.94 430.324 1198.33 430.324C1202.16 430.324 1205.4 429.543 1208.06 427.98C1210.72 426.418 1213.04 424.348 1215.03 421.77L1221.65 426.926C1216.34 435.09 1208.37 439.172 1197.75 439.172ZM1196.4 382.336C1192.02 382.336 1188.35 383.938 1185.38 387.141C1182.41 390.305 1180.58 394.758 1179.88 400.5H1211.63V399.68C1211.32 394.172 1209.84 389.914 1207.18 386.906C1204.52 383.859 1200.93 382.336 1196.4 382.336ZM1323.14 361.945H1295.72V438H1284.52V361.945H1257.16V352.688H1323.14V361.945ZM1384.02 398.566H1347.04V428.801H1389.99V438H1335.79V352.688H1389.41V361.945H1347.04V389.367H1384.02V398.566ZM1404 438V352.688H1428.08C1435.5 352.688 1442.06 354.328 1447.77 357.609C1453.47 360.891 1457.86 365.559 1460.95 371.613C1464.07 377.668 1465.66 384.621 1465.7 392.473V397.922C1465.7 405.969 1464.13 413.02 1461.01 419.074C1457.92 425.129 1453.49 429.777 1447.71 433.02C1441.97 436.262 1435.27 437.922 1427.61 438H1404ZM1415.25 361.945V428.801H1427.08C1435.75 428.801 1442.49 426.105 1447.3 420.715C1452.14 415.324 1454.56 407.648 1454.56 397.688V392.707C1454.56 383.02 1452.28 375.5 1447.71 370.148C1443.18 364.758 1436.73 362.023 1428.37 361.945H1415.25ZM1502.32 397.746L1516.38 374.602H1529.04L1508.29 405.949L1529.68 438H1517.14L1502.49 414.27L1487.84 438H1475.25L1496.63 405.949L1475.89 374.602H1488.43L1502.32 397.746ZM1602.34 352.688V410.695C1602.3 418.742 1599.76 425.324 1594.72 430.441C1589.72 435.559 1582.92 438.43 1574.33 439.055L1571.34 439.172C1562 439.172 1554.56 436.652 1549.02 431.613C1543.47 426.574 1540.66 419.641 1540.58 410.812V352.688H1551.71V410.461C1551.71 416.633 1553.41 421.438 1556.81 424.875C1560.21 428.273 1565.05 429.973 1571.34 429.973C1577.71 429.973 1582.57 428.273 1585.93 424.875C1589.33 421.477 1591.03 416.691 1591.03 410.52V352.688H1602.34ZM1615.52 405.715C1615.52 399.504 1616.73 393.918 1619.15 388.957C1621.61 383.996 1625.01 380.168 1629.35 377.473C1633.72 374.777 1638.7 373.43 1644.29 373.43C1652.92 373.43 1659.89 376.418 1665.21 382.395C1670.56 388.371 1673.23 396.32 1673.23 406.242V407.004C1673.23 413.176 1672.04 418.723 1669.66 423.645C1667.32 428.527 1663.94 432.336 1659.52 435.07C1655.15 437.805 1650.11 439.172 1644.41 439.172C1635.81 439.172 1628.84 436.184 1623.49 430.207C1618.18 424.23 1615.52 416.32 1615.52 406.477V405.715ZM1626.42 407.004C1626.42 414.035 1628.04 419.68 1631.28 423.938C1634.56 428.195 1638.94 430.324 1644.41 430.324C1649.91 430.324 1654.29 428.176 1657.53 423.879C1660.77 419.543 1662.39 413.488 1662.39 405.715C1662.39 398.762 1660.73 393.137 1657.41 388.84C1654.13 384.504 1649.76 382.336 1644.29 382.336C1638.94 382.336 1634.62 384.465 1631.34 388.723C1628.06 392.98 1626.42 399.074 1626.42 407.004ZM1692.16 438V382.98H1682.14V374.602H1692.16V368.098C1692.16 361.301 1693.98 356.047 1697.61 352.336C1701.24 348.625 1706.38 346.77 1713.02 346.77C1715.52 346.77 1718 347.102 1720.46 347.766L1719.88 356.555C1718.04 356.203 1716.09 356.027 1714.02 356.027C1710.5 356.027 1707.79 357.062 1705.87 359.133C1703.96 361.164 1703 364.094 1703 367.922V374.602H1716.54V382.98H1703V438H1692.16ZM1748.64 411.105L1750.29 422.355L1752.69 412.219L1769.56 352.688H1779.05L1795.52 412.219L1797.86 422.531L1799.68 411.047L1812.92 352.688H1824.23L1803.55 438H1793.29L1775.72 375.832L1774.37 369.328L1773.02 375.832L1754.8 438H1744.54L1723.92 352.688H1735.17L1748.64 411.105ZM1919.62 438H1863.72V430.207L1893.25 397.395C1897.63 392.434 1900.64 388.41 1902.28 385.324C1903.96 382.199 1904.8 378.977 1904.8 375.656C1904.8 371.203 1903.45 367.551 1900.75 364.699C1898.06 361.848 1894.47 360.422 1889.97 360.422C1884.58 360.422 1880.38 361.965 1877.38 365.051C1874.41 368.098 1872.92 372.355 1872.92 377.824H1862.08C1862.08 369.973 1864.6 363.625 1869.64 358.781C1874.72 353.938 1881.5 351.516 1889.97 351.516C1897.9 351.516 1904.17 353.605 1908.78 357.785C1913.39 361.926 1915.7 367.453 1915.7 374.367C1915.7 382.766 1910.34 392.766 1899.64 404.367L1876.79 429.152H1919.62V438ZM1984.6 401.613C1984.6 414.309 1982.43 423.742 1978.1 429.914C1973.76 436.086 1966.98 439.172 1957.77 439.172C1948.66 439.172 1941.93 436.164 1937.55 430.148C1933.18 424.094 1930.91 415.07 1930.75 403.078V388.605C1930.75 376.066 1932.92 366.75 1937.26 360.656C1941.59 354.562 1948.39 351.516 1957.65 351.516C1966.83 351.516 1973.59 354.465 1977.92 360.363C1982.26 366.223 1984.48 375.285 1984.6 387.551V401.613ZM1973.76 386.789C1973.76 377.609 1972.47 370.93 1969.89 366.75C1967.32 362.531 1963.23 360.422 1957.65 360.422C1952.1 360.422 1948.06 362.512 1945.52 366.691C1942.98 370.871 1941.67 377.297 1941.59 385.969V403.312C1941.59 412.531 1942.92 419.348 1945.58 423.762C1948.27 428.137 1952.34 430.324 1957.77 430.324C1963.12 430.324 1967.08 428.254 1969.66 424.113C1972.28 419.973 1973.64 413.449 1973.76 404.543V386.789ZM2054.39 438H1998.49V430.207L2028.02 397.395C2032.39 392.434 2035.4 388.41 2037.04 385.324C2038.72 382.199 2039.56 378.977 2039.56 375.656C2039.56 371.203 2038.22 367.551 2035.52 364.699C2032.82 361.848 2029.23 360.422 2024.74 360.422C2019.35 360.422 2015.15 361.965 2012.14 365.051C2009.17 368.098 2007.69 372.355 2007.69 377.824H1996.85C1996.85 369.973 1999.37 363.625 2004.41 358.781C2009.48 353.938 2016.26 351.516 2024.74 351.516C2032.67 351.516 2038.94 353.605 2043.55 357.785C2048.16 361.926 2050.46 367.453 2050.46 374.367C2050.46 382.766 2045.11 392.766 2034.41 404.367L2011.55 429.152H2054.39V438ZM2101.5 438H2090.6V365.754L2068.74 373.781V363.938L2099.8 352.277H2101.5V438ZM2177.08 404.602V438H2165.83V352.688H2197.3C2206.63 352.688 2213.94 355.07 2219.21 359.836C2224.52 364.602 2227.18 370.91 2227.18 378.762C2227.18 387.043 2224.58 393.43 2219.39 397.922C2214.23 402.375 2206.83 404.602 2197.18 404.602H2177.08ZM2177.08 395.402H2197.3C2203.31 395.402 2207.92 393.996 2211.13 391.184C2214.33 388.332 2215.93 384.23 2215.93 378.879C2215.93 373.801 2214.33 369.738 2211.13 366.691C2207.92 363.645 2203.53 362.062 2197.94 361.945H2177.08V395.402ZM2265.32 439.172C2256.73 439.172 2249.74 436.359 2244.35 430.734C2238.96 425.07 2236.26 417.512 2236.26 408.059V406.066C2236.26 399.777 2237.45 394.172 2239.84 389.25C2242.26 384.289 2245.62 380.422 2249.91 377.648C2254.25 374.836 2258.94 373.43 2263.98 373.43C2272.22 373.43 2278.63 376.145 2283.2 381.574C2287.77 387.004 2290.05 394.777 2290.05 404.895V409.406H2247.1C2247.26 415.656 2249.07 420.715 2252.55 424.582C2256.07 428.41 2260.52 430.324 2265.91 430.324C2269.74 430.324 2272.98 429.543 2275.64 427.98C2278.29 426.418 2280.62 424.348 2282.61 421.77L2289.23 426.926C2283.92 435.09 2275.95 439.172 2265.32 439.172ZM2263.98 382.336C2259.6 382.336 2255.93 383.938 2252.96 387.141C2249.99 390.305 2248.16 394.758 2247.45 400.5H2279.21V399.68C2278.9 394.172 2277.41 389.914 2274.76 386.906C2272.1 383.859 2268.51 382.336 2263.98 382.336ZM2333.29 384.328C2331.65 384.055 2329.88 383.918 2327.96 383.918C2320.85 383.918 2316.03 386.945 2313.49 393V438H2302.65V374.602H2313.2L2313.37 381.926C2316.93 376.262 2321.97 373.43 2328.49 373.43C2330.6 373.43 2332.2 373.703 2333.29 374.25V384.328ZM2349.58 438V382.98H2339.56V374.602H2349.58V368.098C2349.58 361.301 2351.4 356.047 2355.03 352.336C2358.66 348.625 2363.8 346.77 2370.44 346.77C2372.94 346.77 2375.42 347.102 2377.88 347.766L2377.3 356.555C2375.46 356.203 2373.51 356.027 2371.44 356.027C2367.92 356.027 2365.21 357.062 2363.29 359.133C2361.38 361.164 2360.42 364.094 2360.42 367.922V374.602H2373.96V382.98H2360.42V438H2349.58ZM2383.1 405.715C2383.1 399.504 2384.31 393.918 2386.73 388.957C2389.19 383.996 2392.59 380.168 2396.93 377.473C2401.3 374.777 2406.28 373.43 2411.87 373.43C2420.5 373.43 2427.47 376.418 2432.79 382.395C2438.14 388.371 2440.81 396.32 2440.81 406.242V407.004C2440.81 413.176 2439.62 418.723 2437.24 423.645C2434.89 428.527 2431.52 432.336 2427.1 435.07C2422.73 437.805 2417.69 439.172 2411.98 439.172C2403.39 439.172 2396.42 436.184 2391.07 430.207C2385.75 424.23 2383.1 416.32 2383.1 406.477V405.715ZM2394 407.004C2394 414.035 2395.62 419.68 2398.86 423.938C2402.14 428.195 2406.52 430.324 2411.98 430.324C2417.49 430.324 2421.87 428.176 2425.11 423.879C2428.35 419.543 2429.97 413.488 2429.97 405.715C2429.97 398.762 2428.31 393.137 2424.99 388.84C2421.71 384.504 2417.34 382.336 2411.87 382.336C2406.52 382.336 2402.2 384.465 2398.92 388.723C2395.64 392.98 2394 399.074 2394 407.004ZM2485.05 384.328C2483.41 384.055 2481.63 383.918 2479.72 383.918C2472.61 383.918 2467.79 386.945 2465.25 393V438H2454.41V374.602H2464.95L2465.13 381.926C2468.68 376.262 2473.72 373.43 2480.25 373.43C2482.36 373.43 2483.96 373.703 2485.05 374.25V384.328ZM2505.27 374.602L2505.56 381.633C2510.21 376.164 2516.48 373.43 2524.37 373.43C2533.23 373.43 2539.27 376.828 2542.47 383.625C2544.58 380.578 2547.32 378.117 2550.68 376.242C2554.07 374.367 2558.08 373.43 2562.69 373.43C2576.59 373.43 2583.66 380.793 2583.9 395.52V438H2573.06V396.164C2573.06 391.633 2572.02 388.254 2569.95 386.027C2567.88 383.762 2564.41 382.629 2559.52 382.629C2555.5 382.629 2552.16 383.84 2549.5 386.262C2546.85 388.645 2545.3 391.867 2544.88 395.93V438H2533.98V396.457C2533.98 387.238 2529.47 382.629 2520.44 382.629C2513.33 382.629 2508.47 385.656 2505.85 391.711V438H2495.01V374.602H2505.27ZM2626.61 439.172C2618.02 439.172 2611.03 436.359 2605.64 430.734C2600.25 425.07 2597.55 417.512 2597.55 408.059V406.066C2597.55 399.777 2598.74 394.172 2601.13 389.25C2603.55 384.289 2606.91 380.422 2611.2 377.648C2615.54 374.836 2620.23 373.43 2625.27 373.43C2633.51 373.43 2639.91 376.145 2644.48 381.574C2649.05 387.004 2651.34 394.777 2651.34 404.895V409.406H2608.39C2608.55 415.656 2610.36 420.715 2613.84 424.582C2617.36 428.41 2621.81 430.324 2627.2 430.324C2631.03 430.324 2634.27 429.543 2636.93 427.98C2639.58 426.418 2641.91 424.348 2643.9 421.77L2650.52 426.926C2645.21 435.09 2637.24 439.172 2626.61 439.172ZM2625.27 382.336C2620.89 382.336 2617.22 383.938 2614.25 387.141C2611.28 390.305 2609.45 394.758 2608.74 400.5H2640.5V399.68C2640.19 394.172 2638.7 389.914 2636.05 386.906C2633.39 383.859 2629.8 382.336 2625.27 382.336ZM2694.58 384.328C2692.94 384.055 2691.16 383.918 2689.25 383.918C2682.14 383.918 2677.32 386.945 2674.78 393V438H2663.94V374.602H2674.48L2674.66 381.926C2678.22 376.262 2683.25 373.43 2689.78 373.43C2691.89 373.43 2693.49 373.703 2694.58 374.25V384.328ZM2741.52 421.184C2741.52 418.254 2740.4 415.988 2738.18 414.387C2735.99 412.746 2732.14 411.34 2726.63 410.168C2721.16 408.996 2716.81 407.59 2713.57 405.949C2710.36 404.309 2707.98 402.355 2706.42 400.09C2704.89 397.824 2704.13 395.129 2704.13 392.004C2704.13 386.809 2706.32 382.414 2710.7 378.82C2715.11 375.227 2720.73 373.43 2727.57 373.43C2734.76 373.43 2740.58 375.285 2745.03 378.996C2749.52 382.707 2751.77 387.453 2751.77 393.234H2740.87C2740.87 390.266 2739.6 387.707 2737.06 385.559C2734.56 383.41 2731.4 382.336 2727.57 382.336C2723.63 382.336 2720.54 383.195 2718.31 384.914C2716.09 386.633 2714.97 388.879 2714.97 391.652C2714.97 394.27 2716.01 396.242 2718.08 397.57C2720.15 398.898 2723.88 400.168 2729.27 401.379C2734.7 402.59 2739.09 404.035 2742.45 405.715C2745.81 407.395 2748.29 409.426 2749.89 411.809C2751.54 414.152 2752.36 417.023 2752.36 420.422C2752.36 426.086 2750.09 430.637 2745.56 434.074C2741.03 437.473 2735.15 439.172 2727.92 439.172C2722.84 439.172 2718.35 438.273 2714.45 436.477C2710.54 434.68 2707.47 432.18 2705.25 428.977C2703.06 425.734 2701.97 422.238 2701.97 418.488H2712.8C2713 422.121 2714.45 425.012 2717.14 427.16C2719.88 429.27 2723.47 430.324 2727.92 430.324C2732.02 430.324 2735.3 429.504 2737.77 427.863C2740.27 426.184 2741.52 423.957 2741.52 421.184ZM2778.61 413.918H2768.82L2768.06 352.688H2779.43L2778.61 413.918ZM2767.65 432.551C2767.65 430.793 2768.18 429.328 2769.23 428.156C2770.32 426.945 2771.93 426.34 2774.04 426.34C2776.14 426.34 2777.75 426.945 2778.84 428.156C2779.93 429.328 2780.48 430.793 2780.48 432.551C2780.48 434.309 2779.93 435.773 2778.84 436.945C2777.75 438.078 2776.14 438.645 2774.04 438.645C2771.93 438.645 2770.32 438.078 2769.23 436.945C2768.18 435.773 2767.65 434.309 2767.65 432.551Z" fill="white"/>
<path d="M1371.24 242.435V276H1351.61V180.734H1388.78C1395.93 180.734 1402.21 182.043 1407.62 184.66C1413.07 187.277 1417.26 191.007 1420.18 195.849C1423.11 200.647 1424.57 206.121 1424.57 212.271C1424.57 221.606 1421.36 228.978 1414.95 234.387C1408.58 239.752 1399.75 242.435 1388.45 242.435H1371.24ZM1371.24 226.535H1388.78C1393.97 226.535 1397.92 225.314 1400.62 222.871C1403.37 220.428 1404.74 216.939 1404.74 212.402C1404.74 207.735 1403.37 203.962 1400.62 201.083C1397.87 198.204 1394.08 196.721 1389.23 196.634H1371.24V226.535ZM1495.43 234.714H1457.74V260.231H1501.97V276H1438.11V180.734H1501.84V196.634H1457.74V219.338H1495.43V234.714ZM1548.75 241.126H1533.11V276H1513.49V180.734H1548.88C1560.14 180.734 1568.82 183.243 1574.92 188.259C1581.03 193.275 1584.08 200.363 1584.08 209.523C1584.08 216.023 1582.67 221.453 1579.83 225.815C1577.04 230.134 1572.79 233.58 1567.07 236.153L1587.68 275.084V276H1566.61L1548.75 241.126ZM1533.11 225.227H1548.95C1553.88 225.227 1557.69 223.983 1560.4 221.497C1563.1 218.967 1564.46 215.499 1564.46 211.094C1564.46 206.601 1563.17 203.068 1560.6 200.494C1558.07 197.921 1554.16 196.634 1548.88 196.634H1533.11V225.227ZM1656.38 237.069H1618.7V276H1599.07V180.734H1661.1V196.634H1618.7V221.235H1656.38V237.069ZM1750.73 230.526C1750.73 239.905 1749.08 248.127 1745.76 255.193C1742.45 262.26 1737.69 267.712 1731.5 271.551C1725.35 275.389 1718.28 277.309 1710.3 277.309C1702.4 277.309 1695.36 275.411 1689.16 271.616C1682.97 267.821 1678.17 262.412 1674.77 255.39C1671.37 248.323 1669.64 240.21 1669.6 231.05V226.339C1669.6 216.961 1671.28 208.716 1674.64 201.606C1678.04 194.453 1682.82 188.979 1688.97 185.184C1695.16 181.345 1702.23 179.426 1710.17 179.426C1718.11 179.426 1725.15 181.345 1731.3 185.184C1737.5 188.979 1742.27 194.453 1745.63 201.606C1749.03 208.716 1750.73 216.939 1750.73 226.273V230.526ZM1730.84 226.208C1730.84 216.219 1729.05 208.629 1725.48 203.438C1721.9 198.248 1716.8 195.652 1710.17 195.652C1703.58 195.652 1698.5 198.226 1694.92 203.373C1691.35 208.477 1689.54 215.979 1689.49 225.881V230.526C1689.49 240.254 1691.28 247.8 1694.86 253.165C1698.43 258.53 1703.58 261.213 1710.3 261.213C1716.88 261.213 1721.94 258.639 1725.48 253.492C1729.01 248.301 1730.8 240.755 1730.84 230.854V226.208ZM1800.26 241.126H1784.63V276H1765V180.734H1800.39C1811.65 180.734 1820.33 183.243 1826.44 188.259C1832.54 193.275 1835.6 200.363 1835.6 209.523C1835.6 216.023 1834.18 221.453 1831.34 225.815C1828.55 230.134 1824.3 233.58 1818.58 236.153L1839.19 275.084V276H1818.13L1800.26 241.126ZM1784.63 225.227H1800.46C1805.39 225.227 1809.21 223.983 1811.91 221.497C1814.61 218.967 1815.97 215.499 1815.97 211.094C1815.97 206.601 1814.68 203.068 1812.11 200.494C1809.58 197.921 1805.67 196.634 1800.39 196.634H1784.63V225.227ZM1876.23 180.734L1900.7 249.828L1925.04 180.734H1950.82V276H1931.12V249.959L1933.09 205.009L1907.37 276H1893.89L1868.25 205.074L1870.21 249.959V276H1850.58V180.734H1876.23ZM2025.28 234.714H1987.59V260.231H2031.82V276H1967.96V180.734H2031.69V196.634H1987.59V219.338H2025.28V234.714ZM2078.6 241.126H2062.96V276H2043.34V180.734H2078.73C2089.99 180.734 2098.67 183.243 2104.77 188.259C2110.88 193.275 2113.93 200.363 2113.93 209.523C2113.93 216.023 2112.52 221.453 2109.68 225.815C2106.89 230.134 2102.64 233.58 2096.92 236.153L2117.53 275.084V276H2096.46L2078.6 241.126ZM2062.96 225.227H2078.8C2083.73 225.227 2087.54 223.983 2090.25 221.497C2092.95 218.967 2094.3 215.499 2094.3 211.094C2094.3 206.601 2093.02 203.068 2090.44 200.494C2087.91 197.921 2084.01 196.634 2078.73 196.634H2062.96V225.227ZM2178.32 251.006C2178.32 247.298 2177.01 244.463 2174.39 242.5C2171.77 240.493 2167.06 238.4 2160.26 236.219C2153.45 233.994 2148.07 231.813 2144.1 229.676C2133.28 223.831 2127.87 215.957 2127.87 206.056C2127.87 200.909 2129.31 196.328 2132.19 192.315C2135.11 188.259 2139.28 185.096 2144.69 182.828C2150.14 180.56 2156.25 179.426 2163.01 179.426C2169.81 179.426 2175.87 180.669 2181.2 183.155C2186.52 185.598 2190.64 189.066 2193.56 193.559C2196.53 198.051 2198.01 203.155 2198.01 208.869H2178.38C2178.38 204.507 2177.01 201.127 2174.26 198.728C2171.51 196.285 2167.65 195.063 2162.68 195.063C2157.88 195.063 2154.15 196.089 2151.49 198.139C2148.83 200.145 2147.5 202.806 2147.5 206.121C2147.5 209.218 2149.05 211.813 2152.14 213.907C2155.29 216.001 2159.89 217.964 2165.95 219.796C2177.12 223.155 2185.25 227.32 2190.36 232.293C2195.46 237.266 2198.01 243.46 2198.01 250.875C2198.01 259.119 2194.89 265.597 2188.65 270.308C2182.42 274.975 2174.02 277.309 2163.46 277.309C2156.14 277.309 2149.46 275.978 2143.44 273.317C2137.42 270.613 2132.82 266.927 2129.64 262.26C2126.5 257.592 2124.93 252.184 2124.93 246.033H2144.62C2144.62 256.546 2150.9 261.802 2163.46 261.802C2168.13 261.802 2171.77 260.864 2174.39 258.988C2177.01 257.069 2178.32 254.408 2178.32 251.006Z" fill="white"/>
</svg>
