<svg width="2624" height="651" viewBox="0 0 2624 651" fill="none" xmlns="http://www.w3.org/2000/svg">
<rect x="4" y="4" width="2616" height="643" fill="#AF7301" stroke="black" stroke-width="8"/>
<line y1="88" x2="2624" y2="88" stroke="black" stroke-width="8"/>
<path d="M0 563H2624" stroke="black" stroke-width="8"/>
<path d="M0 609H2624" stroke="black" stroke-width="8"/>
<path d="M0 44H2624" stroke="black" stroke-width="8"/>
<line x1="88" y1="651" x2="88" y2="-1.74846e-07" stroke="black" stroke-width="8"/>
<line x1="42" y1="651" x2="42" y2="-1.74846e-07" stroke="black" stroke-width="8"/>
<line x1="2574" y1="651" x2="2574" y2="-1.74846e-07" stroke="black" stroke-width="8"/>
<line x1="2527" y1="651" x2="2527" y2="-1.74846e-07" stroke="black" stroke-width="8"/>
<path d="M152.434 352.688L180.324 422.297L208.215 352.688H222.805V438H211.555V404.777L212.609 368.918L184.602 438H175.988L148.039 369.094L149.152 404.777V438H137.902V352.688H152.434ZM267.277 439.172C258.684 439.172 251.691 436.359 246.301 430.734C240.91 425.07 238.215 417.512 238.215 408.059V406.066C238.215 399.777 239.406 394.172 241.789 389.25C244.211 384.289 247.57 380.422 251.867 377.648C256.203 374.836 260.891 373.43 265.93 373.43C274.172 373.43 280.578 376.145 285.148 381.574C289.719 387.004 292.004 394.777 292.004 404.895V409.406H249.055C249.211 415.656 251.027 420.715 254.504 424.582C258.02 428.41 262.473 430.324 267.863 430.324C271.691 430.324 274.934 429.543 277.59 427.98C280.246 426.418 282.57 424.348 284.562 421.77L291.184 426.926C285.871 435.09 277.902 439.172 267.277 439.172ZM265.93 382.336C261.555 382.336 257.883 383.938 254.914 387.141C251.945 390.305 250.109 394.758 249.406 400.5H281.164V399.68C280.852 394.172 279.367 389.914 276.711 386.906C274.055 383.859 270.461 382.336 265.93 382.336ZM330.91 439.172C322.316 439.172 315.324 436.359 309.934 430.734C304.543 425.07 301.848 417.512 301.848 408.059V406.066C301.848 399.777 303.039 394.172 305.422 389.25C307.844 384.289 311.203 380.422 315.5 377.648C319.836 374.836 324.523 373.43 329.562 373.43C337.805 373.43 344.211 376.145 348.781 381.574C353.352 387.004 355.637 394.777 355.637 404.895V409.406H312.688C312.844 415.656 314.66 420.715 318.137 424.582C321.652 428.41 326.105 430.324 331.496 430.324C335.324 430.324 338.566 429.543 341.223 427.98C343.879 426.418 346.203 424.348 348.195 421.77L354.816 426.926C349.504 435.09 341.535 439.172 330.91 439.172ZM329.562 382.336C325.188 382.336 321.516 383.938 318.547 387.141C315.578 390.305 313.742 394.758 313.039 400.5H344.797V399.68C344.484 394.172 343 389.914 340.344 386.906C337.688 383.859 334.094 382.336 329.562 382.336ZM382.941 359.25V374.602H394.777V382.98H382.941V422.297C382.941 424.836 383.469 426.75 384.523 428.039C385.578 429.289 387.375 429.914 389.914 429.914C391.164 429.914 392.883 429.68 395.07 429.211V438C392.219 438.781 389.445 439.172 386.75 439.172C381.906 439.172 378.254 437.707 375.793 434.777C373.332 431.848 372.102 427.688 372.102 422.297V382.98H360.559V374.602H372.102V359.25H382.941ZM451.965 359.25V374.602H463.801V382.98H451.965V422.297C451.965 424.836 452.492 426.75 453.547 428.039C454.602 429.289 456.398 429.914 458.938 429.914C460.188 429.914 461.906 429.68 464.094 429.211V438C461.242 438.781 458.469 439.172 455.773 439.172C450.93 439.172 447.277 437.707 444.816 434.777C442.355 431.848 441.125 427.688 441.125 422.297V382.98H429.582V374.602H441.125V359.25H451.965ZM487.355 382.277C492.16 376.379 498.41 373.43 506.105 373.43C519.504 373.43 526.262 380.988 526.379 396.105V438H515.539V396.047C515.5 391.477 514.445 388.098 512.375 385.91C510.344 383.723 507.16 382.629 502.824 382.629C499.309 382.629 496.223 383.566 493.566 385.441C490.91 387.316 488.84 389.777 487.355 392.824V438H476.516V348H487.355V382.277ZM568.918 439.172C560.324 439.172 553.332 436.359 547.941 430.734C542.551 425.07 539.855 417.512 539.855 408.059V406.066C539.855 399.777 541.047 394.172 543.43 389.25C545.852 384.289 549.211 380.422 553.508 377.648C557.844 374.836 562.531 373.43 567.57 373.43C575.812 373.43 582.219 376.145 586.789 381.574C591.359 387.004 593.645 394.777 593.645 404.895V409.406H550.695C550.852 415.656 552.668 420.715 556.145 424.582C559.66 428.41 564.113 430.324 569.504 430.324C573.332 430.324 576.574 429.543 579.23 427.98C581.887 426.418 584.211 424.348 586.203 421.77L592.824 426.926C587.512 435.09 579.543 439.172 568.918 439.172ZM567.57 382.336C563.195 382.336 559.523 383.938 556.555 387.141C553.586 390.305 551.75 394.758 551.047 400.5H582.805V399.68C582.492 394.172 581.008 389.914 578.352 386.906C575.695 383.859 572.102 382.336 567.57 382.336ZM694.309 361.945H666.887V438H655.695V361.945H628.332V352.688H694.309V361.945ZM755.188 398.566H718.215V428.801H761.164V438H706.965V352.688H760.578V361.945H718.215V389.367H755.188V398.566ZM775.168 438V352.688H799.25C806.672 352.688 813.234 354.328 818.938 357.609C824.641 360.891 829.035 365.559 832.121 371.613C835.246 377.668 836.828 384.621 836.867 392.473V397.922C836.867 405.969 835.305 413.02 832.18 419.074C829.094 425.129 824.66 429.777 818.879 433.02C813.137 436.262 806.438 437.922 798.781 438H775.168ZM786.418 361.945V428.801H798.254C806.926 428.801 813.664 426.105 818.469 420.715C823.312 415.324 825.734 407.648 825.734 397.688V392.707C825.734 383.02 823.449 375.5 818.879 370.148C814.348 364.758 807.902 362.023 799.543 361.945H786.418ZM873.488 397.746L887.551 374.602H900.207L879.465 405.949L900.852 438H888.312L873.664 414.27L859.016 438H846.418L867.805 405.949L847.062 374.602H859.602L873.488 397.746ZM973.508 352.688V410.695C973.469 418.742 970.93 425.324 965.891 430.441C960.891 435.559 954.094 438.43 945.5 439.055L942.512 439.172C933.176 439.172 925.734 436.652 920.188 431.613C914.641 426.574 911.828 419.641 911.75 410.812V352.688H922.883V410.461C922.883 416.633 924.582 421.438 927.98 424.875C931.379 428.273 936.223 429.973 942.512 429.973C948.879 429.973 953.742 428.273 957.102 424.875C960.5 421.477 962.199 416.691 962.199 410.52V352.688H973.508ZM986.691 405.715C986.691 399.504 987.902 393.918 990.324 388.957C992.785 383.996 996.184 380.168 1000.52 377.473C1004.89 374.777 1009.88 373.43 1015.46 373.43C1024.09 373.43 1031.07 376.418 1036.38 382.395C1041.73 388.371 1044.41 396.32 1044.41 406.242V407.004C1044.41 413.176 1043.21 418.723 1040.83 423.645C1038.49 428.527 1035.11 432.336 1030.7 435.07C1026.32 437.805 1021.28 439.172 1015.58 439.172C1006.98 439.172 1000.01 436.184 994.66 430.207C989.348 424.23 986.691 416.32 986.691 406.477V405.715ZM997.59 407.004C997.59 414.035 999.211 419.68 1002.45 423.938C1005.73 428.195 1010.11 430.324 1015.58 430.324C1021.09 430.324 1025.46 428.176 1028.7 423.879C1031.95 419.543 1033.57 413.488 1033.57 405.715C1033.57 398.762 1031.91 393.137 1028.59 388.84C1025.3 384.504 1020.93 382.336 1015.46 382.336C1010.11 382.336 1005.79 384.465 1002.51 388.723C999.23 392.98 997.59 399.074 997.59 407.004ZM1063.33 438V382.98H1053.31V374.602H1063.33V368.098C1063.33 361.301 1065.15 356.047 1068.78 352.336C1072.41 348.625 1077.55 346.77 1084.19 346.77C1086.69 346.77 1089.17 347.102 1091.63 347.766L1091.05 356.555C1089.21 356.203 1087.26 356.027 1085.19 356.027C1081.67 356.027 1078.96 357.062 1077.04 359.133C1075.13 361.164 1074.17 364.094 1074.17 367.922V374.602H1087.71V382.98H1074.17V438H1063.33ZM1119.82 411.105L1121.46 422.355L1123.86 412.219L1140.73 352.688H1150.23L1166.69 412.219L1169.04 422.531L1170.85 411.047L1184.09 352.688H1195.4L1174.72 438H1164.46L1146.89 375.832L1145.54 369.328L1144.19 375.832L1125.97 438H1115.71L1095.09 352.688H1106.34L1119.82 411.105ZM1290.79 438H1234.89V430.207L1264.43 397.395C1268.8 392.434 1271.81 388.41 1273.45 385.324C1275.13 382.199 1275.97 378.977 1275.97 375.656C1275.97 371.203 1274.62 367.551 1271.93 364.699C1269.23 361.848 1265.64 360.422 1261.14 360.422C1255.75 360.422 1251.55 361.965 1248.55 365.051C1245.58 368.098 1244.09 372.355 1244.09 377.824H1233.25C1233.25 369.973 1235.77 363.625 1240.81 358.781C1245.89 353.938 1252.67 351.516 1261.14 351.516C1269.07 351.516 1275.34 353.605 1279.95 357.785C1284.56 361.926 1286.87 367.453 1286.87 374.367C1286.87 382.766 1281.52 392.766 1270.81 404.367L1247.96 429.152H1290.79V438ZM1355.77 401.613C1355.77 414.309 1353.61 423.742 1349.27 429.914C1344.93 436.086 1338.16 439.172 1328.94 439.172C1319.84 439.172 1313.1 436.164 1308.72 430.148C1304.35 424.094 1302.08 415.07 1301.93 403.078V388.605C1301.93 376.066 1304.09 366.75 1308.43 360.656C1312.77 354.562 1319.56 351.516 1328.82 351.516C1338 351.516 1344.76 354.465 1349.09 360.363C1353.43 366.223 1355.66 375.285 1355.77 387.551V401.613ZM1344.93 386.789C1344.93 377.609 1343.64 370.93 1341.07 366.75C1338.49 362.531 1334.41 360.422 1328.82 360.422C1323.27 360.422 1319.23 362.512 1316.69 366.691C1314.15 370.871 1312.84 377.297 1312.77 385.969V403.312C1312.77 412.531 1314.09 419.348 1316.75 423.762C1319.45 428.137 1323.51 430.324 1328.94 430.324C1334.29 430.324 1338.25 428.254 1340.83 424.113C1343.45 419.973 1344.82 413.449 1344.93 404.543V386.789ZM1425.56 438H1369.66V430.207L1399.19 397.395C1403.57 392.434 1406.57 388.41 1408.21 385.324C1409.89 382.199 1410.73 378.977 1410.73 375.656C1410.73 371.203 1409.39 367.551 1406.69 364.699C1404 361.848 1400.4 360.422 1395.91 360.422C1390.52 360.422 1386.32 361.965 1383.31 365.051C1380.34 368.098 1378.86 372.355 1378.86 377.824H1368.02C1368.02 369.973 1370.54 363.625 1375.58 358.781C1380.66 353.938 1387.43 351.516 1395.91 351.516C1403.84 351.516 1410.11 353.605 1414.72 357.785C1419.33 361.926 1421.63 367.453 1421.63 374.367C1421.63 382.766 1416.28 392.766 1405.58 404.367L1382.73 429.152H1425.56V438ZM1472.67 438H1461.77V365.754L1439.91 373.781V363.938L1470.97 352.277H1472.67V438ZM1562.14 399.973C1552.49 397.199 1545.46 393.801 1541.05 389.777C1536.67 385.715 1534.48 380.715 1534.48 374.777C1534.48 368.059 1537.16 362.512 1542.51 358.137C1547.9 353.723 1554.89 351.516 1563.49 351.516C1569.35 351.516 1574.56 352.648 1579.13 354.914C1583.74 357.18 1587.3 360.305 1589.8 364.289C1592.34 368.273 1593.61 372.629 1593.61 377.355H1582.3C1582.3 372.199 1580.66 368.156 1577.38 365.227C1574.09 362.258 1569.46 360.773 1563.49 360.773C1557.94 360.773 1553.61 362.004 1550.48 364.465C1547.39 366.887 1545.85 370.266 1545.85 374.602C1545.85 378.078 1547.32 381.027 1550.25 383.449C1553.21 385.832 1558.23 388.02 1565.3 390.012C1572.41 392.004 1577.96 394.211 1581.95 396.633C1585.97 399.016 1588.94 401.809 1590.85 405.012C1592.8 408.215 1593.78 411.984 1593.78 416.32C1593.78 423.234 1591.09 428.781 1585.7 432.961C1580.3 437.102 1573.1 439.172 1564.07 439.172C1558.21 439.172 1552.75 438.059 1547.67 435.832C1542.59 433.566 1538.66 430.48 1535.89 426.574C1533.16 422.668 1531.79 418.234 1531.79 413.273H1543.1C1543.1 418.43 1544.99 422.512 1548.78 425.52C1552.61 428.488 1557.71 429.973 1564.07 429.973C1570.01 429.973 1574.56 428.762 1577.73 426.34C1580.89 423.918 1582.47 420.617 1582.47 416.438C1582.47 412.258 1581.01 409.035 1578.08 406.77C1575.15 404.465 1569.84 402.199 1562.14 399.973ZM1660.11 407.004C1660.11 416.652 1657.9 424.426 1653.49 430.324C1649.07 436.223 1643.1 439.172 1635.56 439.172C1627.86 439.172 1621.81 436.73 1617.39 431.848V462.375H1606.55V374.602H1616.46L1616.98 381.633C1621.4 376.164 1627.53 373.43 1635.38 373.43C1643 373.43 1649.02 376.301 1653.43 382.043C1657.88 387.785 1660.11 395.773 1660.11 406.008V407.004ZM1649.27 405.773C1649.27 398.625 1647.75 392.98 1644.7 388.84C1641.65 384.699 1637.47 382.629 1632.16 382.629C1625.6 382.629 1620.68 385.539 1617.39 391.359V421.652C1620.64 427.434 1625.6 430.324 1632.28 430.324C1637.47 430.324 1641.59 428.273 1644.64 424.172C1647.73 420.031 1649.27 413.898 1649.27 405.773ZM1700.25 439.172C1691.65 439.172 1684.66 436.359 1679.27 430.734C1673.88 425.07 1671.18 417.512 1671.18 408.059V406.066C1671.18 399.777 1672.38 394.172 1674.76 389.25C1677.18 384.289 1680.54 380.422 1684.84 377.648C1689.17 374.836 1693.86 373.43 1698.9 373.43C1707.14 373.43 1713.55 376.145 1718.12 381.574C1722.69 387.004 1724.97 394.777 1724.97 404.895V409.406H1682.02C1682.18 415.656 1684 420.715 1687.47 424.582C1690.99 428.41 1695.44 430.324 1700.83 430.324C1704.66 430.324 1707.9 429.543 1710.56 427.98C1713.21 426.418 1715.54 424.348 1717.53 421.77L1724.15 426.926C1718.84 435.09 1710.87 439.172 1700.25 439.172ZM1698.9 382.336C1694.52 382.336 1690.85 383.938 1687.88 387.141C1684.91 390.305 1683.08 394.758 1682.38 400.5H1714.13V399.68C1713.82 394.172 1712.34 389.914 1709.68 386.906C1707.02 383.859 1703.43 382.336 1698.9 382.336ZM1776.71 438C1776.09 436.75 1775.58 434.523 1775.19 431.32C1770.15 436.555 1764.13 439.172 1757.14 439.172C1750.89 439.172 1745.75 437.414 1741.73 433.898C1737.75 430.344 1735.75 425.852 1735.75 420.422C1735.75 413.82 1738.25 408.703 1743.25 405.07C1748.29 401.398 1755.36 399.562 1764.46 399.562H1775.01V394.582C1775.01 390.793 1773.88 387.785 1771.61 385.559C1769.35 383.293 1766.01 382.16 1761.59 382.16C1757.73 382.16 1754.48 383.137 1751.87 385.09C1749.25 387.043 1747.94 389.406 1747.94 392.18H1737.04C1737.04 389.016 1738.16 385.969 1740.38 383.039C1742.65 380.07 1745.7 377.727 1749.52 376.008C1753.39 374.289 1757.63 373.43 1762.24 373.43C1769.54 373.43 1775.27 375.266 1779.41 378.938C1783.55 382.57 1785.7 387.59 1785.85 393.996V423.176C1785.85 428.996 1786.59 433.625 1788.08 437.062V438H1776.71ZM1758.72 429.738C1762.12 429.738 1765.34 428.859 1768.39 427.102C1771.44 425.344 1773.64 423.059 1775.01 420.246V407.238H1766.52C1753.23 407.238 1746.59 411.125 1746.59 418.898C1746.59 422.297 1747.73 424.953 1749.99 426.867C1752.26 428.781 1755.17 429.738 1758.72 429.738ZM1820.54 408.645L1813.74 415.734V438H1802.9V348H1813.74V402.434L1819.54 395.461L1839.29 374.602H1852.47L1827.8 401.086L1855.34 438H1842.63L1820.54 408.645ZM1888.8 439.172C1880.21 439.172 1873.21 436.359 1867.82 430.734C1862.43 425.07 1859.74 417.512 1859.74 408.059V406.066C1859.74 399.777 1860.93 394.172 1863.31 389.25C1865.73 384.289 1869.09 380.422 1873.39 377.648C1877.73 374.836 1882.41 373.43 1887.45 373.43C1895.7 373.43 1902.1 376.145 1906.67 381.574C1911.24 387.004 1913.53 394.777 1913.53 404.895V409.406H1870.58C1870.73 415.656 1872.55 420.715 1876.03 424.582C1879.54 428.41 1884 430.324 1889.39 430.324C1893.21 430.324 1896.46 429.543 1899.11 427.98C1901.77 426.418 1904.09 424.348 1906.09 421.77L1912.71 426.926C1907.39 435.09 1899.43 439.172 1888.8 439.172ZM1887.45 382.336C1883.08 382.336 1879.41 383.938 1876.44 387.141C1873.47 390.305 1871.63 394.758 1870.93 400.5H1902.69V399.68C1902.38 394.172 1900.89 389.914 1898.23 386.906C1895.58 383.859 1891.98 382.336 1887.45 382.336ZM1956.77 384.328C1955.13 384.055 1953.35 383.918 1951.44 383.918C1944.33 383.918 1939.5 386.945 1936.96 393V438H1926.12V374.602H1936.67L1936.85 381.926C1940.4 376.262 1945.44 373.43 1951.96 373.43C1954.07 373.43 1955.68 373.703 1956.77 374.25V384.328ZM2003.7 421.184C2003.7 418.254 2002.59 415.988 2000.36 414.387C1998.18 412.746 1994.33 411.34 1988.82 410.168C1983.35 408.996 1979 407.59 1975.75 405.949C1972.55 404.309 1970.17 402.355 1968.61 400.09C1967.08 397.824 1966.32 395.129 1966.32 392.004C1966.32 386.809 1968.51 382.414 1972.88 378.82C1977.3 375.227 1982.92 373.43 1989.76 373.43C1996.95 373.43 2002.77 375.285 2007.22 378.996C2011.71 382.707 2013.96 387.453 2013.96 393.234H2003.06C2003.06 390.266 2001.79 387.707 1999.25 385.559C1996.75 383.41 1993.59 382.336 1989.76 382.336C1985.81 382.336 1982.73 383.195 1980.5 384.914C1978.27 386.633 1977.16 388.879 1977.16 391.652C1977.16 394.27 1978.2 396.242 1980.27 397.57C1982.34 398.898 1986.07 400.168 1991.46 401.379C1996.89 402.59 2001.28 404.035 2004.64 405.715C2008 407.395 2010.48 409.426 2012.08 411.809C2013.72 414.152 2014.54 417.023 2014.54 420.422C2014.54 426.086 2012.28 430.637 2007.75 434.074C2003.21 437.473 1997.34 439.172 1990.11 439.172C1985.03 439.172 1980.54 438.273 1976.63 436.477C1972.73 434.68 1969.66 432.18 1967.43 428.977C1965.25 425.734 1964.15 422.238 1964.15 418.488H1974.99C1975.19 422.121 1976.63 425.012 1979.33 427.16C1982.06 429.27 1985.66 430.324 1990.11 430.324C1994.21 430.324 1997.49 429.504 1999.95 427.863C2002.45 426.184 2003.7 423.957 2003.7 421.184ZM2040.79 413.918H2031.01L2030.25 352.688H2041.61L2040.79 413.918ZM2029.84 432.551C2029.84 430.793 2030.36 429.328 2031.42 428.156C2032.51 426.945 2034.11 426.34 2036.22 426.34C2038.33 426.34 2039.93 426.945 2041.03 428.156C2042.12 429.328 2042.67 430.793 2042.67 432.551C2042.67 434.309 2042.12 435.773 2041.03 436.945C2039.93 438.078 2038.33 438.645 2036.22 438.645C2034.11 438.645 2032.51 438.078 2031.42 436.945C2030.36 435.773 2029.84 434.309 2029.84 432.551Z" fill="white"/>
<path d="M185.905 251.006C185.905 247.298 184.597 244.463 181.979 242.5C179.362 240.493 174.651 238.4 167.847 236.219C161.042 233.994 155.655 231.813 151.686 229.676C140.868 223.831 135.459 215.957 135.459 206.056C135.459 200.909 136.898 196.328 139.777 192.315C142.7 188.259 146.866 185.096 152.274 182.828C157.727 180.56 163.834 179.426 170.595 179.426C177.399 179.426 183.463 180.669 188.784 183.155C194.106 185.598 198.228 189.066 201.15 193.559C204.117 198.051 205.6 203.155 205.6 208.869H185.971C185.971 204.507 184.597 201.127 181.849 198.728C179.101 196.285 175.24 195.063 170.268 195.063C165.469 195.063 161.74 196.089 159.079 198.139C156.418 200.145 155.088 202.806 155.088 206.121C155.088 209.218 156.636 211.813 159.733 213.907C162.874 216.001 167.476 217.964 173.539 219.796C184.706 223.155 192.841 227.32 197.944 232.293C203.048 237.266 205.6 243.46 205.6 250.875C205.6 259.119 202.481 265.597 196.243 270.308C190.006 274.975 181.609 277.309 171.053 277.309C163.725 277.309 157.051 275.978 151.031 273.317C145.012 270.613 140.41 266.927 137.226 262.26C134.085 257.592 132.515 252.184 132.515 246.033H152.209C152.209 256.546 158.49 261.802 171.053 261.802C175.72 261.802 179.362 260.864 181.979 258.988C184.597 257.069 185.905 254.408 185.905 251.006ZM238.576 242.435V276H218.947V180.734H256.111C263.265 180.734 269.546 182.043 274.955 184.66C280.408 187.277 284.595 191.007 287.518 195.849C290.44 200.647 291.901 206.121 291.901 212.271C291.901 221.606 288.695 228.978 282.283 234.387C275.915 239.752 267.082 242.435 255.784 242.435H238.576ZM238.576 226.535H256.111C261.302 226.535 265.25 225.314 267.954 222.871C270.702 220.428 272.076 216.939 272.076 212.402C272.076 207.735 270.702 203.962 267.954 201.083C265.206 198.204 261.411 196.721 256.569 196.634H238.576V226.535ZM362.762 234.714H325.074V260.231H369.305V276H305.445V180.734H369.174V196.634H325.074V219.338H362.762V234.714ZM434.604 256.371H400.188L393.645 276H372.772L408.235 180.734H426.425L462.084 276H441.212L434.604 256.371ZM405.487 240.472H429.304L417.33 204.812L405.487 240.472ZM500.818 237.789L490.611 248.781V276H470.982V180.734H490.611V223.918L499.248 212.075L523.522 180.734H547.666L513.839 223.067L548.647 276H525.289L500.818 237.789ZM613.357 234.714H575.67V260.231H619.9V276H556.041V180.734H619.77V196.634H575.67V219.338H613.357V234.714ZM666.683 241.126H651.045V276H631.416V180.734H666.813C678.067 180.734 686.748 183.243 692.854 188.259C698.961 193.275 702.015 200.363 702.015 209.523C702.015 216.023 700.597 221.453 697.762 225.815C694.97 230.134 690.717 233.58 685.003 236.153L705.613 275.084V276H684.545L666.683 241.126ZM651.045 225.227H666.879C671.808 225.227 675.625 223.983 678.329 221.497C681.034 218.967 682.386 215.499 682.386 211.094C682.386 206.601 681.099 203.068 678.525 200.494C675.995 197.921 672.091 196.634 666.813 196.634H651.045V225.227ZM766.397 251.006C766.397 247.298 765.089 244.463 762.472 242.5C759.854 240.493 755.144 238.4 748.339 236.219C741.534 233.994 736.147 231.813 732.178 229.676C721.36 223.831 715.951 215.957 715.951 206.056C715.951 200.909 717.391 196.328 720.27 192.315C723.192 188.259 727.358 185.096 732.767 182.828C738.219 180.56 744.326 179.426 751.087 179.426C757.892 179.426 763.955 180.669 769.276 183.155C774.598 185.598 778.72 189.066 781.643 193.559C784.609 198.051 786.092 203.155 786.092 208.869H766.463C766.463 204.507 765.089 201.127 762.341 198.728C759.593 196.285 755.732 195.063 750.76 195.063C745.962 195.063 742.232 196.089 739.571 198.139C736.91 200.145 735.58 202.806 735.58 206.121C735.58 209.218 737.129 211.813 740.226 213.907C743.366 216.001 747.968 217.964 754.031 219.796C765.198 223.155 773.333 227.32 778.437 232.293C783.54 237.266 786.092 243.46 786.092 250.875C786.092 259.119 782.973 265.597 776.735 270.308C770.498 274.975 762.101 277.309 751.545 277.309C744.217 277.309 737.543 275.978 731.523 273.317C725.504 270.613 720.902 266.927 717.718 262.26C714.577 257.592 713.007 252.184 713.007 246.033H732.701C732.701 256.546 738.982 261.802 751.545 261.802C756.212 261.802 759.854 260.864 762.472 258.988C765.089 257.069 766.397 254.408 766.397 251.006Z" fill="white"/>
</svg>
